<?xml version="1.0" encoding="UTF-8" standalone="no"?>
<svg
   height="390.32mm"
   viewBox="0.0 0.0 745.28 390.32"
   width="745.28mm"
   version="1.1"
   id="svg6"
   sodipodi:docname="AllPartsReadyBurn0.08.svg"
   inkscape:version="1.4 (86a8ad7, 2024-10-11)"
   inkscape:export-filename="FlexBox4&amp;BasedboxReadyBurn0.08.pdf"
   inkscape:export-xdpi="96"
   inkscape:export-ydpi="96"
   xmlns:inkscape="http://www.inkscape.org/namespaces/inkscape"
   xmlns:sodipodi="http://sodipodi.sourceforge.net/DTD/sodipodi-0.dtd"
   xmlns="http://www.w3.org/2000/svg"
   xmlns:svg="http://www.w3.org/2000/svg"
   xmlns:rdf="http://www.w3.org/1999/02/22-rdf-syntax-ns#"
   xmlns:cc="http://creativecommons.org/ns#"
   xmlns:dc="http://purl.org/dc/elements/1.1/">
  <defs
     id="defs6" />
  <sodipodi:namedview
     id="namedview6"
     pagecolor="#ffffff"
     bordercolor="#000000"
     borderopacity="0.25"
     inkscape:showpageshadow="2"
     inkscape:pageopacity="0.0"
     inkscape:pagecheckerboard="0"
     inkscape:deskcolor="#d1d1d1"
     inkscape:document-units="mm"
     inkscape:zoom="0.41"
     inkscape:cx="1454.878"
     inkscape:cy="715.85366"
     inkscape:window-width="1920"
     inkscape:window-height="974"
     inkscape:window-x="-11"
     inkscape:window-y="-11"
     inkscape:window-maximized="1"
     inkscape:current-layer="svg6" />
  <!--
FlexBox4 - Box with living hinge and left corners rounded

Created with Boxes.py (https://boxes.hackerspace-bamberg.de/)
Creation date: 2025-04-20 11:58:10
Command line (remove spaces between dashes): boxes FlexBox4 - -x=50 - -y=350 - -h=20 - -labels=0 - -reference=0 - -burn=0.08
Url: https://boxes.hackerspace-bamberg.de/FlexBox4?FingerJoint_style=rectangular&FingerJoint_surroundingspaces=2.0&FingerJoint_bottom_lip=0.0&FingerJoint_edge_width=1.0&FingerJoint_extra_length=0.0&FingerJoint_finger=2.0&FingerJoint_play=0.0&FingerJoint_space=2.0&FingerJoint_width=1.0&Flex_stretch=1.05&Flex_connection=1.0&Flex_distance=0.5&Flex_width=5.0&x=50&y=350&h=20&outside=0&outside=1&radius=15&latchsize=8&thickness=3.0&format=svg&tabs=0.0&qr_code=0&debug=0&labels=0&reference=0&inner_corners=loop&burn=0.08&language=en&render=2
Url short: https://boxes.hackerspace-bamberg.de/FlexBox4?x=50&y=350&h=20&labels=0&reference=0&burn=0.08
SettingsUrl: https://boxes.hackerspace-bamberg.de/FlexBox4?FingerJoint_style=rectangular&FingerJoint_surroundingspaces=2.0&FingerJoint_bottom_lip=0.0&FingerJoint_edge_width=1.0&FingerJoint_extra_length=0.0&FingerJoint_finger=2.0&FingerJoint_play=0.0&FingerJoint_space=2.0&FingerJoint_width=1.0&Flex_stretch=1.05&Flex_connection=1.0&Flex_distance=0.5&Flex_width=5.0&x=50&y=350&h=20&outside=0&outside=1&radius=15&latchsize=8&thickness=3.0&format=svg&tabs=0.0&qr_code=0&debug=0&labels=0&reference=0&inner_corners=loop&burn=0.08&language=en&render=2
SettingsUrl short: https://boxes.hackerspace-bamberg.de/FlexBox4?x=50&y=350&h=20&labels=0&reference=0&burn=0.08
-->
  <title
     id="title1">FlexBox4</title>
  <metadata
     id="metadata1">
    <rdf:RDF>
      <cc:Work>
        <dc:title>FlexBox4</dc:title>
        <dc:date>2025-04-20 11:58:10</dc:date>
        <dc:source>https://boxes.hackerspace-bamberg.de/FlexBox4?FingerJoint_style=rectangular&amp;FingerJoint_surroundingspaces=2.0&amp;FingerJoint_bottom_lip=0.0&amp;FingerJoint_edge_width=1.0&amp;FingerJoint_extra_length=0.0&amp;FingerJoint_finger=2.0&amp;FingerJoint_play=0.0&amp;FingerJoint_space=2.0&amp;FingerJoint_width=1.0&amp;Flex_stretch=1.05&amp;Flex_connection=1.0&amp;Flex_distance=0.5&amp;Flex_width=5.0&amp;x=50&amp;y=350&amp;h=20&amp;outside=0&amp;outside=1&amp;radius=15&amp;latchsize=8&amp;thickness=3.0&amp;format=svg&amp;tabs=0.0&amp;qr_code=0&amp;debug=0&amp;labels=0&amp;reference=0&amp;inner_corners=loop&amp;burn=0.08&amp;language=en&amp;render=2</dc:source>
        <dc:source>https://boxes.hackerspace-bamberg.de/FlexBox4?x=50&amp;y=350&amp;h=20&amp;labels=0&amp;reference=0&amp;burn=0.08</dc:source>
        <dc:description>Box with living hinge and left corners rounded

Created with Boxes.py (https://boxes.hackerspace-bamberg.de/)
Command line: boxes FlexBox4 --FingerJoint_style=rectangular --FingerJoint_surroundingspaces=2.0 --FingerJoint_bottom_lip=0.0 --FingerJoint_edge_width=1.0 --FingerJoint_extra_length=0.0 --FingerJoint_finger=2.0 --FingerJoint_play=0.0 --FingerJoint_space=2.0 --FingerJoint_width=1.0 --Flex_stretch=1.05 --Flex_connection=1.0 --Flex_distance=0.5 --Flex_width=5.0 --x=50 --y=350 --h=20 --outside=0 --outside=1 --radius=15 --latchsize=8 --thickness=3.0 --format=svg --tabs=0.0 --qr_code=0 --debug=0 --labels=0 --reference=0 --inner_corners=loop --burn=0.08
Command line short: boxes FlexBox4 --x=50 --y=350 --h=20 --labels=0 --reference=0 --burn=0.08
Url: https://boxes.hackerspace-bamberg.de/FlexBox4?FingerJoint_style=rectangular&amp;FingerJoint_surroundingspaces=2.0&amp;FingerJoint_bottom_lip=0.0&amp;FingerJoint_edge_width=1.0&amp;FingerJoint_extra_length=0.0&amp;FingerJoint_finger=2.0&amp;FingerJoint_play=0.0&amp;FingerJoint_space=2.0&amp;FingerJoint_width=1.0&amp;Flex_stretch=1.05&amp;Flex_connection=1.0&amp;Flex_distance=0.5&amp;Flex_width=5.0&amp;x=50&amp;y=350&amp;h=20&amp;outside=0&amp;outside=1&amp;radius=15&amp;latchsize=8&amp;thickness=3.0&amp;format=svg&amp;tabs=0.0&amp;qr_code=0&amp;debug=0&amp;labels=0&amp;reference=0&amp;inner_corners=loop&amp;burn=0.08&amp;language=en&amp;render=2
Url short: https://boxes.hackerspace-bamberg.de/FlexBox4?x=50&amp;y=350&amp;h=20&amp;labels=0&amp;reference=0&amp;burn=0.08
SettingsUrl: https://boxes.hackerspace-bamberg.de/FlexBox4?FingerJoint_style=rectangular&amp;FingerJoint_surroundingspaces=2.0&amp;FingerJoint_bottom_lip=0.0&amp;FingerJoint_edge_width=1.0&amp;FingerJoint_extra_length=0.0&amp;FingerJoint_finger=2.0&amp;FingerJoint_play=0.0&amp;FingerJoint_space=2.0&amp;FingerJoint_width=1.0&amp;Flex_stretch=1.05&amp;Flex_connection=1.0&amp;Flex_distance=0.5&amp;Flex_width=5.0&amp;x=50&amp;y=350&amp;h=20&amp;outside=0&amp;outside=1&amp;radius=15&amp;latchsize=8&amp;thickness=3.0&amp;format=svg&amp;tabs=0.0&amp;qr_code=0&amp;debug=0&amp;labels=0&amp;reference=0&amp;inner_corners=loop&amp;burn=0.08&amp;language=en&amp;render=2
SettingsUrl short: https://boxes.hackerspace-bamberg.de/FlexBox4?x=50&amp;y=350&amp;h=20&amp;labels=0&amp;reference=0&amp;burn=0.08
</dc:description>
      </cc:Work>
    </rdf:RDF>
  </metadata>
  <g
     id="p-0"
     style="fill:none;stroke-width:0.01;stroke-linecap:round;stroke-linejoin:round;stroke-dasharray:none;stroke:#000000;stroke-opacity:1">
    <path
       d="m 13.08,379.57 h 11.5 c 0.044,0 0.08,-0.036 0.08,-0.08 v -2.92 c 0,-0.08 -0.08,0 0,0 h 5.84 c 0.08,0 0,-0.08 0,0 v 2.92 c 0,0.044 0.036,0.08 0.08,0.08 h 6 c 0.044,0 0.08,-0.036 0.08,-0.08 v -2.92 c 0,-0.08 -0.08,0 0,0 h 5.84 c 0.08,0 0,-0.08 0,0 v 2.92 c 0,0.044 0.036,0.08 0.08,0.08 h 6 c 0.044,0 0.08,-0.036 0.08,-0.08 v -2.92 c 0,-0.08 -0.08,0 0,0 h 5.84 c 0.08,0 0,-0.08 0,0 v 2.92 c 0,0.044 0.036,0.08 0.08,0.08 h 6 c 0.044,0 0.08,-0.036 0.08,-0.08 v -2.92 c 0,-0.08 -0.08,0 0,0 h 5.84 c 0.08,0 0,-0.08 0,0 v 2.92 c 0,0.044 0.036,0.08 0.08,0.08 h 6 c 0.044,0 0.08,-0.036 0.08,-0.08 v -2.92 c 0,-0.08 -0.08,0 0,0 h 5.84 c 0.08,0 0,-0.08 0,0 v 2.92 c 0,0.044 0.036,0.08 0.08,0.08 h 6 c 0.044,0 0.08,-0.036 0.08,-0.08 v -2.92 c 0,-0.08 -0.08,0 0,0 h 5.84 c 0.08,0 0,-0.08 0,0 v 2.92 c 0,0.044 0.036,0.08 0.08,0.08 h 6 c 0.044,0 0.08,-0.036 0.08,-0.08 v -2.92 c 0,-0.08 -0.08,0 0,0 h 5.84 c 0.08,0 0,-0.08 0,0 v 2.92 c 0,0.044 0.036,0.08 0.08,0.08 h 6 c 0.044,0 0.08,-0.036 0.08,-0.08 v -2.92 c 0,-0.08 -0.08,0 0,0 h 5.84 c 0.08,0 0,-0.08 0,0 v 2.92 c 0,0.044 0.036,0.08 0.08,0.08 h 6 c 0.044,0 0.08,-0.036 0.08,-0.08 v -2.92 c 0,-0.08 -0.08,0 0,0 h 5.84 c 0.08,0 0,-0.08 0,0 v 2.92 c 0,0.044 0.036,0.08 0.08,0.08 h 6 c 0.044,0 0.08,-0.036 0.08,-0.08 v -2.92 c 0,-0.08 -0.08,0 0,0 h 5.84 c 0.08,0 0,-0.08 0,0 v 2.92 c 0,0.044 0.036,0.08 0.08,0.08 h 6 c 0.044,0 0.08,-0.036 0.08,-0.08 v -2.92 c 0,-0.08 -0.08,0 0,0 h 5.84 c 0.08,0 0,-0.08 0,0 v 2.92 c 0,0.044 0.036,0.08 0.08,0.08 h 6 c 0.044,0 0.08,-0.036 0.08,-0.08 v -2.92 c 0,-0.08 -0.08,0 0,0 h 5.84 c 0.08,0 0,-0.08 0,0 v 2.92 c 0,0.044 0.036,0.08 0.08,0.08 h 6 c 0.044,0 0.08,-0.036 0.08,-0.08 v -2.92 c 0,-0.08 -0.08,0 0,0 h 5.84 c 0.08,0 0,-0.08 0,0 v 2.92 c 0,0.044 0.036,0.08 0.08,0.08 h 6 c 0.044,0 0.08,-0.036 0.08,-0.08 v -2.92 c 0,-0.08 -0.08,0 0,0 h 5.84 c 0.08,0 0,-0.08 0,0 v 2.92 c 0,0.044 0.036,0.08 0.08,0.08 h 6 c 0.044,0 0.08,-0.036 0.08,-0.08 v -2.92 c 0,-0.08 -0.08,0 0,0 h 5.84 c 0.08,0 0,-0.08 0,0 v 2.92 c 0,0.044 0.036,0.08 0.08,0.08 h 6 c 0.044,0 0.08,-0.036 0.08,-0.08 v -2.92 c 0,-0.08 -0.08,0 0,0 h 5.84 c 0.08,0 0,-0.08 0,0 v 2.92 c 0,0.044 0.036,0.08 0.08,0.08 h 6 c 0.044,0 0.08,-0.036 0.08,-0.08 v -2.92 c 0,-0.08 -0.08,0 0,0 h 5.84 c 0.08,0 0,-0.08 0,0 v 2.92 c 0,0.044 0.036,0.08 0.08,0.08 h 6 c 0.044,0 0.08,-0.036 0.08,-0.08 v -2.92 c 0,-0.08 -0.08,0 0,0 h 5.84 c 0.08,0 0,-0.08 0,0 v 2.92 c 0,0.044 0.036,0.08 0.08,0.08 h 6 c 0.044,0 0.08,-0.036 0.08,-0.08 v -2.92 c 0,-0.08 -0.08,0 0,0 h 5.84 c 0.08,0 0,-0.08 0,0 v 2.92 c 0,0.044 0.036,0.08 0.08,0.08 h 6 c 0.044,0 0.08,-0.036 0.08,-0.08 v -2.92 c 0,-0.08 -0.08,0 0,0 h 5.84 c 0.08,0 0,-0.08 0,0 v 2.92 c 0,0.044 0.036,0.08 0.08,0.08 h 6 c 0.044,0 0.08,-0.036 0.08,-0.08 v -2.92 c 0,-0.08 -0.08,0 0,0 h 5.84 c 0.08,0 0,-0.08 0,0 v 2.92 c 0,0.044 0.036,0.08 0.08,0.08 h 6 c 0.044,0 0.08,-0.036 0.08,-0.08 v -2.92 c 0,-0.08 -0.08,0 0,0 h 5.84 c 0.08,0 0,-0.08 0,0 v 2.92 c 0,0.044 0.036,0.08 0.08,0.08 h 6 c 0.044,0 0.08,-0.036 0.08,-0.08 v -2.92 c 0,-0.08 -0.08,0 0,0 h 5.84 c 0.08,0 0,-0.08 0,0 v 2.92 c 0,0.044 0.036,0.08 0.08,0.08 h 6 c 0.044,0 0.08,-0.036 0.08,-0.08 v -2.92 c 0,-0.08 -0.08,0 0,0 h 5.84 c 0.08,0 0,-0.08 0,0 v 2.92 c 0,0.044 0.036,0.08 0.08,0.08 h 6 c 0.044,0 0.08,-0.036 0.08,-0.08 v -2.92 c 0,-0.08 -0.08,0 0,0 h 5.84 c 0.08,0 0,-0.08 0,0 v 2.92 c 0,0.044 0.036,0.08 0.08,0.08 h 6 c 0.044,0 0.08,-0.036 0.08,-0.08 v -2.92 c 0,-0.08 -0.08,0 0,0 h 5.84 c 0.08,0 0,-0.08 0,0 v 2.92 c 0,0.044 0.036,0.08 0.08,0.08 h 11.5 23.562 14 23.562 305 c 0.044,0 0.08,-0.036 0.08,-0.08 v -3.22 c 0,-0.08 -0.08,0 0,0 h 12.44 c 0.08,0 0,-0.08 0,0 v 3.22 c 0,0.146 0.038,0.289 0.111,0.415 0.073,0.126 0.178,0.231 0.304,0.304 0.126,0.073 0.269,0.111 0.415,0.111 0.127,0 0.252,-0.033 0.362,-0.097 0.111,-0.064 0.202,-0.155 0.266,-0.265 0.063,-0.111 0.097,-0.236 0.097,-0.363 0,-0.099 0.026,-0.197 0.076,-0.282 0.049,-0.086 0.12,-0.158 0.206,-0.207 0.086,-0.05 0.184,-0.076 0.283,-0.076 0.099,0 0.196,0.026 0.282,0.076 0.086,0.049 0.158,0.121 0.207,0.207 0.05,0.085 0.076,0.183 0.076,0.282 0,0.127 0.033,0.252 0.097,0.363 0.064,0.11 0.155,0.201 0.265,0.265 0.111,0.064 0.236,0.097 0.363,0.097 0.127,0 0.252,-0.033 0.362,-0.097 0.111,-0.064 0.202,-0.155 0.266,-0.265 0.063,-0.111 0.097,-0.236 0.097,-0.363 0,-0.099 0.026,-0.197 0.076,-0.282 0.049,-0.086 0.12,-0.158 0.206,-0.207 0.086,-0.05 0.184,-0.076 0.283,-0.076 0.099,0 0.196,0.026 0.282,0.076 0.086,0.049 0.158,0.121 0.207,0.207 0.05,0.085 0.076,0.183 0.076,0.282 0,0.127 0.033,0.252 0.097,0.363 0.064,0.11 0.155,0.201 0.265,0.265 0.111,0.064 0.236,0.097 0.363,0.097 0.127,0 0.252,-0.033 0.362,-0.097 0.111,-0.064 0.202,-0.155 0.266,-0.265 0.063,-0.111 0.097,-0.236 0.097,-0.363 0,-0.099 0.026,-0.197 0.076,-0.282 0.049,-0.086 0.12,-0.158 0.206,-0.207 0.086,-0.05 0.184,-0.076 0.283,-0.076 0.099,0 0.196,0.026 0.282,0.076 0.086,0.049 0.158,0.121 0.207,0.207 0.05,0.085 0.076,0.183 0.076,0.282 0,0.127 0.033,0.252 0.097,0.363 0.064,0.11 0.155,0.201 0.265,0.265 0.111,0.064 0.236,0.097 0.363,0.097 0.127,0 0.252,-0.033 0.362,-0.097 0.111,-0.064 0.202,-0.155 0.266,-0.265 0.063,-0.111 0.097,-0.236 0.097,-0.363 0,-0.099 0.026,-0.197 0.076,-0.282 0.049,-0.086 0.12,-0.158 0.206,-0.207 0.086,-0.05 0.184,-0.076 0.283,-0.076 0.099,0 0.196,0.026 0.282,0.076 0.086,0.049 0.158,0.121 0.207,0.207 0.05,0.085 0.076,0.183 0.076,0.282 0,0.127 0.033,0.252 0.097,0.363 0.064,0.11 0.155,0.201 0.265,0.265 0.111,0.064 0.236,0.097 0.363,0.097 0.127,0 0.252,-0.033 0.362,-0.097 0.111,-0.064 0.202,-0.155 0.266,-0.265 0.063,-0.111 0.097,-0.236 0.097,-0.363 0,-0.099 0.026,-0.197 0.076,-0.282 0.049,-0.086 0.12,-0.158 0.206,-0.207 0.086,-0.05 0.184,-0.076 0.283,-0.076 0.099,0 0.196,0.026 0.282,0.076 0.086,0.049 0.158,0.121 0.207,0.207 0.05,0.085 0.076,0.183 0.076,0.282 0,0.127 0.033,0.252 0.097,0.363 0.064,0.11 0.155,0.201 0.265,0.265 0.111,0.064 0.236,0.097 0.363,0.097 0.146,0 0.289,-0.038 0.415,-0.111 0.126,-0.073 0.231,-0.178 0.304,-0.304 0.073,-0.126 0.111,-0.269 0.111,-0.415 v -20 c 0,-0.146 -0.038,-0.289 -0.111,-0.415 -0.073,-0.126 -0.178,-0.231 -0.304,-0.304 -0.126,-0.073 -0.269,-0.111 -0.415,-0.111 -0.127,0 -0.252,0.033 -0.363,0.097 -0.11,0.064 -0.201,0.155 -0.265,0.266 -0.064,0.11 -0.097,0.235 -0.097,0.362 0,0.099 -0.026,0.197 -0.076,0.283 -0.049,0.085 -0.121,0.157 -0.207,0.206 -0.086,0.05 -0.183,0.076 -0.282,0.076 -0.099,0 -0.197,-0.026 -0.283,-0.076 -0.086,-0.049 -0.157,-0.121 -0.206,-0.206 -0.05,-0.086 -0.076,-0.184 -0.076,-0.283 0,-0.127 -0.034,-0.252 -0.097,-0.362 -0.064,-0.111 -0.155,-0.202 -0.266,-0.266 -0.11,-0.064 -0.235,-0.097 -0.362,-0.097 -0.127,0 -0.252,0.033 -0.363,0.097 -0.11,0.064 -0.201,0.155 -0.265,0.266 -0.064,0.11 -0.097,0.235 -0.097,0.362 0,0.099 -0.026,0.197 -0.076,0.283 -0.049,0.085 -0.121,0.157 -0.207,0.206 -0.086,0.05 -0.183,0.076 -0.282,0.076 -0.099,0 -0.197,-0.026 -0.283,-0.076 -0.086,-0.049 -0.157,-0.121 -0.206,-0.206 -0.05,-0.086 -0.076,-0.184 -0.076,-0.283 0,-0.127 -0.034,-0.252 -0.097,-0.362 -0.064,-0.111 -0.155,-0.202 -0.266,-0.266 -0.11,-0.064 -0.235,-0.097 -0.362,-0.097 -0.127,0 -0.252,0.033 -0.363,0.097 -0.11,0.064 -0.201,0.155 -0.265,0.266 -0.064,0.11 -0.097,0.235 -0.097,0.362 0,0.099 -0.026,0.197 -0.076,0.283 -0.049,0.085 -0.121,0.157 -0.207,0.206 -0.086,0.05 -0.183,0.076 -0.282,0.076 -0.099,0 -0.197,-0.026 -0.283,-0.076 -0.086,-0.049 -0.157,-0.121 -0.206,-0.206 -0.05,-0.086 -0.076,-0.184 -0.076,-0.283 0,-0.127 -0.034,-0.252 -0.097,-0.363 -0.064,-0.11 -0.155,-0.201 -0.266,-0.265 -0.11,-0.064 -0.235,-0.097 -0.362,-0.097 -0.127,0 -0.252,0.033 -0.363,0.097 -0.11,0.064 -0.201,0.155 -0.265,0.265 -0.064,0.111 -0.097,0.236 -0.097,0.363 0,0.099 -0.026,0.197 -0.076,0.282 -0.049,0.086 -0.121,0.158 -0.207,0.207 -0.086,0.05 -0.183,0.076 -0.282,0.076 -0.099,0 -0.197,-0.026 -0.283,-0.076 -0.086,-0.049 -0.157,-0.121 -0.206,-0.207 -0.05,-0.085 -0.076,-0.183 -0.076,-0.282 0,-0.127 -0.034,-0.252 -0.097,-0.363 -0.064,-0.11 -0.155,-0.201 -0.266,-0.265 -0.11,-0.064 -0.235,-0.097 -0.362,-0.097 -0.127,0 -0.252,0.033 -0.363,0.097 -0.11,0.064 -0.201,0.155 -0.265,0.265 -0.064,0.111 -0.097,0.236 -0.097,0.363 0,0.099 -0.026,0.197 -0.076,0.282 -0.049,0.086 -0.121,0.158 -0.207,0.207 -0.086,0.05 -0.183,0.076 -0.282,0.076 -0.099,0 -0.197,-0.026 -0.283,-0.076 -0.086,-0.049 -0.157,-0.121 -0.206,-0.207 -0.05,-0.085 -0.076,-0.183 -0.076,-0.282 0,-0.127 -0.034,-0.252 -0.097,-0.363 -0.064,-0.11 -0.155,-0.201 -0.266,-0.265 -0.11,-0.064 -0.235,-0.097 -0.362,-0.097 -0.146,0 -0.289,0.038 -0.415,0.111 -0.126,0.073 -0.231,0.178 -0.304,0.304 -0.073,0.126 -0.111,0.269 -0.111,0.415 v 3.22 c 0,0.08 0.08,0 0,0 h -12.44 c -0.08,0 0,0.08 0,0 v -3.22 c 0,-0.044 -0.036,-0.08 -0.08,-0.08 h -305 -23.562 -14 -23.562 -11.5 c -0.044,0 -0.08,0.036 -0.08,0.08 v 2.92 c 0,0.08 0.08,0 0,0 h -5.84 c -0.08,0 0,0.08 0,0 v -2.92 c 0,-0.044 -0.036,-0.08 -0.08,-0.08 h -6 c -0.044,0 -0.08,0.036 -0.08,0.08 v 2.92 c 0,0.08 0.08,0 0,0 h -5.84 c -0.08,0 0,0.08 0,0 v -2.92 c 0,-0.044 -0.036,-0.08 -0.08,-0.08 h -6 c -0.044,0 -0.08,0.036 -0.08,0.08 v 2.92 c 0,0.08 0.08,0 0,0 h -5.84 c -0.08,0 0,0.08 0,0 v -2.92 c 0,-0.044 -0.036,-0.08 -0.08,-0.08 h -6 c -0.044,0 -0.08,0.036 -0.08,0.08 v 2.92 c 0,0.08 0.08,0 0,0 h -5.84 c -0.08,0 0,0.08 0,0 v -2.92 c 0,-0.044 -0.036,-0.08 -0.08,-0.08 h -6 c -0.044,0 -0.08,0.036 -0.08,0.08 v 2.92 c 0,0.08 0.08,0 0,0 h -5.84 c -0.08,0 0,0.08 0,0 v -2.92 c 0,-0.044 -0.036,-0.08 -0.08,-0.08 h -6 c -0.044,0 -0.08,0.036 -0.08,0.08 v 2.92 c 0,0.08 0.08,0 0,0 h -5.84 c -0.08,0 0,0.08 0,0 v -2.92 c 0,-0.044 -0.036,-0.08 -0.08,-0.08 h -6 c -0.044,0 -0.08,0.036 -0.08,0.08 v 2.92 c 0,0.08 0.08,0 0,0 h -5.84 c -0.08,0 0,0.08 0,0 v -2.92 c 0,-0.044 -0.036,-0.08 -0.08,-0.08 h -6 c -0.044,0 -0.08,0.036 -0.08,0.08 v 2.92 c 0,0.08 0.08,0 0,0 h -5.84 c -0.08,0 0,0.08 0,0 v -2.92 c 0,-0.044 -0.036,-0.08 -0.08,-0.08 h -6 c -0.044,0 -0.08,0.036 -0.08,0.08 v 2.92 c 0,0.08 0.08,0 0,0 h -5.84 c -0.08,0 0,0.08 0,0 v -2.92 c 0,-0.044 -0.036,-0.08 -0.08,-0.08 h -6 c -0.044,0 -0.08,0.036 -0.08,0.08 v 2.92 c 0,0.08 0.08,0 0,0 h -5.84 c -0.08,0 0,0.08 0,0 v -2.92 c 0,-0.044 -0.036,-0.08 -0.08,-0.08 h -6 c -0.044,0 -0.08,0.036 -0.08,0.08 v 2.92 c 0,0.08 0.08,0 0,0 h -5.84 c -0.08,0 0,0.08 0,0 v -2.92 c 0,-0.044 -0.036,-0.08 -0.08,-0.08 h -6 c -0.044,0 -0.08,0.036 -0.08,0.08 v 2.92 c 0,0.08 0.08,0 0,0 h -5.84 c -0.08,0 0,0.08 0,0 v -2.92 c 0,-0.044 -0.036,-0.08 -0.08,-0.08 h -6 c -0.044,0 -0.08,0.036 -0.08,0.08 v 2.92 c 0,0.08 0.08,0 0,0 h -5.84 c -0.08,0 0,0.08 0,0 v -2.92 c 0,-0.044 -0.036,-0.08 -0.08,-0.08 h -6 c -0.044,0 -0.08,0.036 -0.08,0.08 v 2.92 c 0,0.08 0.08,0 0,0 h -5.84 c -0.08,0 0,0.08 0,0 v -2.92 c 0,-0.044 -0.036,-0.08 -0.08,-0.08 h -6 c -0.044,0 -0.08,0.036 -0.08,0.08 v 2.92 c 0,0.08 0.08,0 0,0 h -5.84 c -0.08,0 0,0.08 0,0 v -2.92 c 0,-0.044 -0.036,-0.08 -0.08,-0.08 h -6 c -0.044,0 -0.08,0.036 -0.08,0.08 v 2.92 c 0,0.08 0.08,0 0,0 h -5.84 c -0.08,0 0,0.08 0,0 v -2.92 c 0,-0.044 -0.036,-0.08 -0.08,-0.08 h -6 c -0.044,0 -0.08,0.036 -0.08,0.08 v 2.92 c 0,0.08 0.08,0 0,0 h -5.84 c -0.08,0 0,0.08 0,0 v -2.92 c 0,-0.044 -0.036,-0.08 -0.08,-0.08 h -6 c -0.044,0 -0.08,0.036 -0.08,0.08 v 2.92 c 0,0.08 0.08,0 0,0 h -5.84 c -0.08,0 0,0.08 0,0 v -2.92 c 0,-0.044 -0.036,-0.08 -0.08,-0.08 h -6 c -0.044,0 -0.08,0.036 -0.08,0.08 v 2.92 c 0,0.08 0.08,0 0,0 h -5.84 c -0.08,0 0,0.08 0,0 v -2.92 c 0,-0.044 -0.036,-0.08 -0.08,-0.08 h -6 c -0.044,0 -0.08,0.036 -0.08,0.08 v 2.92 c 0,0.08 0.08,0 0,0 h -5.84 c -0.08,0 0,0.08 0,0 v -2.92 c 0,-0.044 -0.036,-0.08 -0.08,-0.08 h -6 c -0.044,0 -0.08,0.036 -0.08,0.08 v 2.92 c 0,0.08 0.08,0 0,0 h -5.84 c -0.08,0 0,0.08 0,0 v -2.92 c 0,-0.044 -0.036,-0.08 -0.08,-0.08 h -6 c -0.044,0 -0.08,0.036 -0.08,0.08 v 2.92 c 0,0.08 0.08,0 0,0 h -5.84 c -0.08,0 0,0.08 0,0 v -2.92 c 0,-0.044 -0.036,-0.08 -0.08,-0.08 h -6 c -0.044,0 -0.08,0.036 -0.08,0.08 v 2.92 c 0,0.08 0.08,0 0,0 h -5.84 c -0.08,0 0,0.08 0,0 v -2.92 c 0,-0.044 -0.036,-0.08 -0.08,-0.08 h -6 c -0.044,0 -0.08,0.036 -0.08,0.08 v 2.92 c 0,0.08 0.08,0 0,0 h -5.84 c -0.08,0 0,0.08 0,0 v -2.92 c 0,-0.044 -0.036,-0.08 -0.08,-0.08 h -6 c -0.044,0 -0.08,0.036 -0.08,0.08 v 2.92 c 0,0.08 0.08,0 0,0 h -5.84 c -0.08,0 0,0.08 0,0 v -2.92 c 0,-0.044 -0.036,-0.08 -0.08,-0.08 h -6 c -0.044,0 -0.08,0.036 -0.08,0.08 v 2.92 c 0,0.08 0.08,0 0,0 h -5.84 c -0.08,0 0,0.08 0,0 v -2.92 c 0,-0.044 -0.036,-0.08 -0.08,-0.08 h -11.5 c -0.044,0 -0.08,0.036 -0.08,0.08 v 3 3.92 c 0,0.08 0.08,0 0,0 h -2.92 c -0.044,0 -0.08,0.036 -0.08,0.08 v 6 c 0,0.044 0.036,0.08 0.08,0.08 H 13 c 0.08,0 0,-0.08 0,0 v 3.92 3 c 0,0.044 0.036,0.08 0.08,0.08 z"
       stroke="#000000"
       stroke-width="0.16"
       id="path1"
       style="fill:none;stroke-width:0.01;stroke-dasharray:none;stroke:#000000;stroke-opacity:1" />
    <path
       d="m 344.111,379.57 v -17.16 m 1.5,-3 v 17.16 m 1.5,3 v -17.16 m 1.5,-3 v 17.16 m 1.5,3 v -17.16 m 1.5,-3 v 17.16 m 1.5,3 v -17.16 m 1.5,-3 v 17.16 m 1.5,3 v -17.16 m 1.5,-3 v 17.16 m 1.5,3 v -17.16 m 1.5,-3 v 17.16 m 1.5,3 v -17.16 m 1.5,-3 v 17.16"
       stroke="#000000"
       stroke-width="0.16"
       id="path2"
       style="fill:none;stroke-width:0.01;stroke-dasharray:none;stroke:#000000;stroke-opacity:1" />
    <path
       d="m 381.673,379.57 v -17.16 m 1.5,-3 v 17.16 m 1.5,3 v -17.16 m 1.5,-3 v 17.16 m 1.5,3 v -17.16 m 1.5,-3 v 17.16 m 1.5,3 v -17.16 m 1.5,-3 v 17.16 m 1.5,3 v -17.16 m 1.5,-3 v 17.16 m 1.5,3 v -17.16 m 1.5,-3 v 17.16 m 1.5,3 v -17.16 m 1.5,-3 v 17.16"
       stroke="#000000"
       stroke-width="0.16"
       id="path3"
       style="fill:none;stroke-width:0.01;stroke-dasharray:none;stroke:#000000;stroke-opacity:1" />
  </g>
  <g
     id="p-1"
     style="fill:none;stroke-width:0.01;stroke-linecap:round;stroke-linejoin:round;stroke-dasharray:none;stroke:#000000;stroke-opacity:1">
    <path
       d="M 13.08,354.16 H 20 c 0.08,0 0,-0.08 0,0 v 2.92 c 0,0.044 0.036,0.08 0.08,0.08 h 6 c 0.044,0 0.08,-0.036 0.08,-0.08 v -2.92 c 0,-0.08 -0.08,0 0,0 H 32 c 0.08,0 0,-0.08 0,0 v 2.92 c 0,0.044 0.036,0.08 0.08,0.08 h 6 c 0.044,0 0.08,-0.036 0.08,-0.08 v -2.92 c 0,-0.08 -0.08,0 0,0 H 44 c 0.08,0 0,-0.08 0,0 v 2.92 c 0,0.044 0.036,0.08 0.08,0.08 h 6 c 0.044,0 0.08,-0.036 0.08,-0.08 v -2.92 c 0,-0.08 -0.08,0 0,0 h 6.92 c 0.044,0 0.08,-0.036 0.08,-0.08 v -11.42 c 0,-0.08 -0.08,0 0,0 h 2.92 c 0.044,0 0.08,-0.036 0.08,-0.08 v -6 c 0,-0.044 -0.036,-0.08 -0.08,-0.08 h -2.92 c -0.08,0 0,0.08 0,0 v -5.84 c 0,-0.08 -0.08,0 0,0 h 2.92 c 0.044,0 0.08,-0.036 0.08,-0.08 v -6 c 0,-0.044 -0.036,-0.08 -0.08,-0.08 h -2.92 c -0.08,0 0,0.08 0,0 v -5.84 c 0,-0.08 -0.08,0 0,0 h 2.92 c 0.044,0 0.08,-0.036 0.08,-0.08 v -6 c 0,-0.044 -0.036,-0.08 -0.08,-0.08 h -2.92 c -0.08,0 0,0.08 0,0 v -5.84 c 0,-0.08 -0.08,0 0,0 h 2.92 c 0.044,0 0.08,-0.036 0.08,-0.08 v -6 c 0,-0.044 -0.036,-0.08 -0.08,-0.08 h -2.92 c -0.08,0 0,0.08 0,0 v -5.84 c 0,-0.08 -0.08,0 0,0 h 2.92 c 0.044,0 0.08,-0.036 0.08,-0.08 v -6 c 0,-0.044 -0.036,-0.08 -0.08,-0.08 h -2.92 c -0.08,0 0,0.08 0,0 v -5.84 c 0,-0.08 -0.08,0 0,0 h 2.92 c 0.044,0 0.08,-0.036 0.08,-0.08 v -6 c 0,-0.044 -0.036,-0.08 -0.08,-0.08 h -2.92 c -0.08,0 0,0.08 0,0 v -5.84 c 0,-0.08 -0.08,0 0,0 h 2.92 c 0.044,0 0.08,-0.036 0.08,-0.08 v -6 c 0,-0.044 -0.036,-0.08 -0.08,-0.08 h -2.92 c -0.08,0 0,0.08 0,0 v -5.84 c 0,-0.08 -0.08,0 0,0 h 2.92 c 0.044,0 0.08,-0.036 0.08,-0.08 v -6 c 0,-0.044 -0.036,-0.08 -0.08,-0.08 h -2.92 c -0.08,0 0,0.08 0,0 v -5.84 c 0,-0.08 -0.08,0 0,0 h 2.92 c 0.044,0 0.08,-0.036 0.08,-0.08 v -6 c 0,-0.044 -0.036,-0.08 -0.08,-0.08 h -2.92 c -0.08,0 0,0.08 0,0 v -5.84 c 0,-0.08 -0.08,0 0,0 h 2.92 c 0.044,0 0.08,-0.036 0.08,-0.08 v -6 c 0,-0.044 -0.036,-0.08 -0.08,-0.08 h -2.92 c -0.08,0 0,0.08 0,0 v -5.84 c 0,-0.08 -0.08,0 0,0 h 2.92 c 0.044,0 0.08,-0.036 0.08,-0.08 v -6 c 0,-0.044 -0.036,-0.08 -0.08,-0.08 h -2.92 c -0.08,0 0,0.08 0,0 v -5.84 c 0,-0.08 -0.08,0 0,0 h 2.92 c 0.044,0 0.08,-0.036 0.08,-0.08 v -6 c 0,-0.044 -0.036,-0.08 -0.08,-0.08 h -2.92 c -0.08,0 0,0.08 0,0 v -5.84 c 0,-0.08 -0.08,0 0,0 h 2.92 c 0.044,0 0.08,-0.036 0.08,-0.08 v -6 c 0,-0.044 -0.036,-0.08 -0.08,-0.08 h -2.92 c -0.08,0 0,0.08 0,0 v -5.84 c 0,-0.08 -0.08,0 0,0 h 2.92 c 0.044,0 0.08,-0.036 0.08,-0.08 v -6 c 0,-0.044 -0.036,-0.08 -0.08,-0.08 h -2.92 c -0.08,0 0,0.08 0,0 v -5.84 c 0,-0.08 -0.08,0 0,0 h 2.92 c 0.044,0 0.08,-0.036 0.08,-0.08 v -6 c 0,-0.044 -0.036,-0.08 -0.08,-0.08 h -2.92 c -0.08,0 0,0.08 0,0 v -5.84 c 0,-0.08 -0.08,0 0,0 h 2.92 c 0.044,0 0.08,-0.036 0.08,-0.08 v -6 c 0,-0.044 -0.036,-0.08 -0.08,-0.08 h -2.92 c -0.08,0 0,0.08 0,0 v -5.84 c 0,-0.08 -0.08,0 0,0 h 2.92 c 0.044,0 0.08,-0.036 0.08,-0.08 v -6 c 0,-0.044 -0.036,-0.08 -0.08,-0.08 h -2.92 c -0.08,0 0,0.08 0,0 v -5.84 c 0,-0.08 -0.08,0 0,0 h 2.92 c 0.044,0 0.08,-0.036 0.08,-0.08 v -6 c 0,-0.044 -0.036,-0.08 -0.08,-0.08 h -2.92 c -0.08,0 0,0.08 0,0 v -5.84 c 0,-0.08 -0.08,0 0,0 h 2.92 c 0.044,0 0.08,-0.036 0.08,-0.08 v -6 c 0,-0.044 -0.036,-0.08 -0.08,-0.08 h -2.92 c -0.08,0 0,0.08 0,0 v -5.84 c 0,-0.08 -0.08,0 0,0 h 2.92 c 0.044,0 0.08,-0.036 0.08,-0.08 v -6 c 0,-0.044 -0.036,-0.08 -0.08,-0.08 h -2.92 c -0.08,0 0,0.08 0,0 v -5.84 c 0,-0.08 -0.08,0 0,0 h 2.92 c 0.044,0 0.08,-0.036 0.08,-0.08 v -6 c 0,-0.044 -0.036,-0.08 -0.08,-0.08 h -2.92 c -0.08,0 0,0.08 0,0 v -5.84 c 0,-0.08 -0.08,0 0,0 h 2.92 c 0.044,0 0.08,-0.036 0.08,-0.08 v -6 c 0,-0.044 -0.036,-0.08 -0.08,-0.08 h -2.92 c -0.08,0 0,0.08 0,0 v -5.84 c 0,-0.08 -0.08,0 0,0 h 2.92 c 0.044,0 0.08,-0.036 0.08,-0.08 v -6 c 0,-0.044 -0.036,-0.08 -0.08,-0.08 h -2.92 c -0.08,0 0,0.08 0,0 v -5.84 c 0,-0.08 -0.08,0 0,0 h 2.92 c 0.044,0 0.08,-0.036 0.08,-0.08 v -6 c 0,-0.044 -0.036,-0.08 -0.08,-0.08 h -2.92 c -0.08,0 0,0.08 0,0 v -5.84 c 0,-0.08 -0.08,0 0,0 h 2.92 c 0.044,0 0.08,-0.036 0.08,-0.08 v -6 c 0,-0.044 -0.036,-0.08 -0.08,-0.08 h -2.92 c -0.08,0 0,0.08 0,0 v -5.84 c 0,-0.08 -0.08,0 0,0 h 2.92 c 0.044,0 0.08,-0.036 0.08,-0.08 v -6 c 0,-0.044 -0.036,-0.08 -0.08,-0.08 h -2.92 c -0.08,0 0,0.08 0,0 V 25.08 c 0,-2.647 -0.697,-5.248 -2.02,-7.54 C 53.816,15.248 51.912,13.344 49.62,12.02 47.328,10.697 44.727,10 42.08,10 h -14 c -2.647,0 -5.248,0.697 -7.54,2.02 -2.292,1.324 -4.196,3.228 -5.52,5.52 C 13.697,19.832 13,22.433 13,25.08 V 330 c 0,0.08 0.08,0 0,0 h -2.92 c -0.044,0 -0.08,0.036 -0.08,0.08 v 12 c 0,0.044 0.036,0.08 0.08,0.08 H 13 c 0.08,0 0,-0.08 0,0 v 11.92 c 0,0.044 0.036,0.08 0.08,0.08 z"
       stroke="#000000"
       stroke-width="0.16"
       id="path4"
       style="fill:none;stroke-width:0.01;stroke-dasharray:none;stroke:#000000;stroke-opacity:1" />
  </g>
  <g
     id="p-2"
     style="fill:none;stroke-width:0.01;stroke-linecap:round;stroke-linejoin:round;stroke-dasharray:none;stroke:#000000;stroke-opacity:1">
    <path
       d="m 108.74,354.16 h -6.92 c -0.08,0 0,-0.08 0,0 v 2.92 c 0,0.044 -0.036,0.08 -0.08,0.08 h -6 c -0.044,0 -0.08,-0.036 -0.08,-0.08 v -2.92 c 0,-0.08 0.08,0 0,0 h -5.84 c -0.08,0 0,-0.08 0,0 v 2.92 c 0,0.044 -0.036,0.08 -0.08,0.08 h -6 c -0.044,0 -0.08,-0.036 -0.08,-0.08 v -2.92 c 0,-0.08 0.08,0 0,0 h -5.84 c -0.08,0 0,-0.08 0,0 v 2.92 c 0,0.044 -0.036,0.08 -0.08,0.08 h -6 c -0.044,0 -0.08,-0.036 -0.08,-0.08 v -2.92 c 0,-0.08 0.08,0 0,0 h -6.92 c -0.044,0 -0.08,-0.036 -0.08,-0.08 v -11.42 c 0,-0.08 0.08,0 0,0 h -2.92 c -0.044,0 -0.08,-0.036 -0.08,-0.08 v -6 c 0,-0.044 0.036,-0.08 0.08,-0.08 h 2.92 c 0.08,0 0,0.08 0,0 v -5.84 c 0,-0.08 0.08,0 0,0 h -2.92 c -0.044,0 -0.08,-0.036 -0.08,-0.08 v -6 c 0,-0.044 0.036,-0.08 0.08,-0.08 h 2.92 c 0.08,0 0,0.08 0,0 v -5.84 c 0,-0.08 0.08,0 0,0 h -2.92 c -0.044,0 -0.08,-0.036 -0.08,-0.08 v -6 c 0,-0.044 0.036,-0.08 0.08,-0.08 h 2.92 c 0.08,0 0,0.08 0,0 v -5.84 c 0,-0.08 0.08,0 0,0 h -2.92 c -0.044,0 -0.08,-0.036 -0.08,-0.08 v -6 c 0,-0.044 0.036,-0.08 0.08,-0.08 h 2.92 c 0.08,0 0,0.08 0,0 v -5.84 c 0,-0.08 0.08,0 0,0 h -2.92 c -0.044,0 -0.08,-0.036 -0.08,-0.08 v -6 c 0,-0.044 0.036,-0.08 0.08,-0.08 h 2.92 c 0.08,0 0,0.08 0,0 v -5.84 c 0,-0.08 0.08,0 0,0 h -2.92 c -0.044,0 -0.08,-0.036 -0.08,-0.08 v -6 c 0,-0.044 0.036,-0.08 0.08,-0.08 h 2.92 c 0.08,0 0,0.08 0,0 v -5.84 c 0,-0.08 0.08,0 0,0 h -2.92 c -0.044,0 -0.08,-0.036 -0.08,-0.08 v -6 c 0,-0.044 0.036,-0.08 0.08,-0.08 h 2.92 c 0.08,0 0,0.08 0,0 v -5.84 c 0,-0.08 0.08,0 0,0 h -2.92 c -0.044,0 -0.08,-0.036 -0.08,-0.08 v -6 c 0,-0.044 0.036,-0.08 0.08,-0.08 h 2.92 c 0.08,0 0,0.08 0,0 v -5.84 c 0,-0.08 0.08,0 0,0 h -2.92 c -0.044,0 -0.08,-0.036 -0.08,-0.08 v -6 c 0,-0.044 0.036,-0.08 0.08,-0.08 h 2.92 c 0.08,0 0,0.08 0,0 v -5.84 c 0,-0.08 0.08,0 0,0 h -2.92 c -0.044,0 -0.08,-0.036 -0.08,-0.08 v -6 c 0,-0.044 0.036,-0.08 0.08,-0.08 h 2.92 c 0.08,0 0,0.08 0,0 v -5.84 c 0,-0.08 0.08,0 0,0 h -2.92 c -0.044,0 -0.08,-0.036 -0.08,-0.08 v -6 c 0,-0.044 0.036,-0.08 0.08,-0.08 h 2.92 c 0.08,0 0,0.08 0,0 v -5.84 c 0,-0.08 0.08,0 0,0 h -2.92 c -0.044,0 -0.08,-0.036 -0.08,-0.08 v -6 c 0,-0.044 0.036,-0.08 0.08,-0.08 h 2.92 c 0.08,0 0,0.08 0,0 v -5.84 c 0,-0.08 0.08,0 0,0 h -2.92 c -0.044,0 -0.08,-0.036 -0.08,-0.08 v -6 c 0,-0.044 0.036,-0.08 0.08,-0.08 h 2.92 c 0.08,0 0,0.08 0,0 v -5.84 c 0,-0.08 0.08,0 0,0 h -2.92 c -0.044,0 -0.08,-0.036 -0.08,-0.08 v -6 c 0,-0.044 0.036,-0.08 0.08,-0.08 h 2.92 c 0.08,0 0,0.08 0,0 v -5.84 c 0,-0.08 0.08,0 0,0 h -2.92 c -0.044,0 -0.08,-0.036 -0.08,-0.08 v -6 c 0,-0.044 0.036,-0.08 0.08,-0.08 h 2.92 c 0.08,0 0,0.08 0,0 v -5.84 c 0,-0.08 0.08,0 0,0 h -2.92 c -0.044,0 -0.08,-0.036 -0.08,-0.08 v -6 c 0,-0.044 0.036,-0.08 0.08,-0.08 h 2.92 c 0.08,0 0,0.08 0,0 v -5.84 c 0,-0.08 0.08,0 0,0 h -2.92 c -0.044,0 -0.08,-0.036 -0.08,-0.08 v -6 c 0,-0.044 0.036,-0.08 0.08,-0.08 h 2.92 c 0.08,0 0,0.08 0,0 v -5.84 c 0,-0.08 0.08,0 0,0 h -2.92 c -0.044,0 -0.08,-0.036 -0.08,-0.08 v -6 c 0,-0.044 0.036,-0.08 0.08,-0.08 h 2.92 c 0.08,0 0,0.08 0,0 v -5.84 c 0,-0.08 0.08,0 0,0 h -2.92 c -0.044,0 -0.08,-0.036 -0.08,-0.08 v -6 c 0,-0.044 0.036,-0.08 0.08,-0.08 h 2.92 c 0.08,0 0,0.08 0,0 v -5.84 c 0,-0.08 0.08,0 0,0 h -2.92 c -0.044,0 -0.08,-0.036 -0.08,-0.08 v -6 c 0,-0.044 0.036,-0.08 0.08,-0.08 h 2.92 c 0.08,0 0,0.08 0,0 v -5.84 c 0,-0.08 0.08,0 0,0 h -2.92 c -0.044,0 -0.08,-0.036 -0.08,-0.08 v -6 c 0,-0.044 0.036,-0.08 0.08,-0.08 h 2.92 c 0.08,0 0,0.08 0,0 v -5.84 c 0,-0.08 0.08,0 0,0 h -2.92 c -0.044,0 -0.08,-0.036 -0.08,-0.08 v -6 c 0,-0.044 0.036,-0.08 0.08,-0.08 h 2.92 c 0.08,0 0,0.08 0,0 v -5.84 c 0,-0.08 0.08,0 0,0 h -2.92 c -0.044,0 -0.08,-0.036 -0.08,-0.08 v -6 c 0,-0.044 0.036,-0.08 0.08,-0.08 h 2.92 c 0.08,0 0,0.08 0,0 v -5.84 c 0,-0.08 0.08,0 0,0 h -2.92 c -0.044,0 -0.08,-0.036 -0.08,-0.08 v -6 c 0,-0.044 0.036,-0.08 0.08,-0.08 h 2.92 c 0.08,0 0,0.08 0,0 v -5.84 c 0,-0.08 0.08,0 0,0 h -2.92 c -0.044,0 -0.08,-0.036 -0.08,-0.08 v -6 c 0,-0.044 0.036,-0.08 0.08,-0.08 h 2.92 c 0.08,0 0,0.08 0,0 v -5.84 c 0,-0.08 0.08,0 0,0 h -2.92 c -0.044,0 -0.08,-0.036 -0.08,-0.08 v -6 c 0,-0.044 0.036,-0.08 0.08,-0.08 h 2.92 c 0.08,0 0,0.08 0,0 V 25.08 c 0,-2.647 0.697,-5.248 2.02,-7.54 1.324,-2.292 3.228,-4.196 5.52,-5.52 C 74.492,10.697 77.093,10 79.74,10 h 14 c 2.647,0 5.248,0.697 7.54,2.02 2.292,1.324 4.196,3.228 5.52,5.52 1.323,2.292 2.02,4.893 2.02,7.54 V 330 c 0,0.08 -0.08,0 0,0 h 2.92 c 0.044,0 0.08,0.036 0.08,0.08 v 12 c 0,0.044 -0.036,0.08 -0.08,0.08 h -2.92 c -0.08,0 0,-0.08 0,0 v 11.92 c 0,0.044 -0.036,0.08 -0.08,0.08 z"
       stroke="#000000"
       stroke-width="0.16"
       id="path5"
       style="fill:none;stroke-width:0.01;stroke-dasharray:none;stroke:#000000;stroke-opacity:1" />
  </g>
  <g
     id="p-3"
     style="fill:none;stroke-width:0.01;stroke-linecap:round;stroke-linejoin:round;stroke-dasharray:none;stroke:#000000;stroke-opacity:1"
     transform="translate(328.08348)">
    <path
       d="m 116.4,357.16 h 7 c 0.044,0 0.08,-0.036 0.08,-0.08 v -2.92 c 0,-0.08 -0.08,0 0,0 h 5.84 c 0.08,0 0,-0.08 0,0 v 2.92 c 0,0.044 0.036,0.08 0.08,0.08 h 6 c 0.044,0 0.08,-0.036 0.08,-0.08 v -2.92 c 0,-0.08 -0.08,0 0,0 h 5.84 c 0.08,0 0,-0.08 0,0 v 2.92 c 0,0.044 0.036,0.08 0.08,0.08 h 6 c 0.044,0 0.08,-0.036 0.08,-0.08 v -2.92 c 0,-0.08 -0.08,0 0,0 h 5.84 c 0.08,0 0,-0.08 0,0 v 2.92 c 0,0.044 0.036,0.08 0.08,0.08 h 7 c 0.044,0 0.08,-0.036 0.08,-0.08 v -3 -14 -3 c 0,-0.044 -0.036,-0.08 -0.08,-0.08 h -7 c -0.044,0 -0.08,0.036 -0.08,0.08 V 340 c 0,0.08 0.08,0 0,0 h -5.84 c -0.08,0 0,0.08 0,0 v -2.92 c 0,-0.044 -0.036,-0.08 -0.08,-0.08 h -6 c -0.044,0 -0.08,0.036 -0.08,0.08 V 340 c 0,0.08 0.08,0 0,0 h -5.84 c -0.08,0 0,0.08 0,0 v -2.92 c 0,-0.044 -0.036,-0.08 -0.08,-0.08 h -6 c -0.044,0 -0.08,0.036 -0.08,0.08 V 340 c 0,0.08 0.08,0 0,0 h -5.84 c -0.08,0 0,0.08 0,0 v -2.92 c 0,-0.044 -0.036,-0.08 -0.08,-0.08 h -7 -3 c -0.044,0 -0.08,0.036 -0.08,0.08 v 3 4 c 0,0.044 0.036,0.08 0.08,0.08 h 2.92 c 0.08,0 0,-0.08 0,0 V 350 c 0,0.08 0.08,0 0,0 h -2.92 c -0.044,0 -0.08,0.036 -0.08,0.08 v 4 3 c 0,0.044 0.036,0.08 0.08,0.08 z"
       stroke="#000000"
       stroke-width="0.16"
       id="path6"
       style="fill:none;stroke-width:0.01;stroke-dasharray:none;stroke:#000000;stroke-opacity:1" />
  </g>
  <path
     d="m 118.97245,353.62875 h 5.92 c 0.08,0 0,-0.08 0,0 v 2.92 c 0,0.044 0.036,0.08 0.08,0.08 h 6 c 0.044,0 0.08,-0.036 0.08,-0.08 v -2.92 c 0,-0.08 -0.08,0 0,0 h 5.84 c 0.08,0 0,-0.08 0,0 v 2.92 c 0,0.044 0.036,0.08 0.08,0.08 h 6 c 0.044,0 0.08,-0.036 0.08,-0.08 v -2.92 c 0,-0.08 -0.08,0 0,0 h 5.84 c 0.08,0 0,-0.08 0,0 v 2.92 c 0,0.044 0.036,0.08 0.08,0.08 h 6 c 0.044,0 0.08,-0.036 0.08,-0.08 v -2.92 c 0,-0.08 -0.08,0 0,0 h 5.84 c 0.08,0 0,-0.08 0,0 v 2.92 c 0,0.044 0.036,0.08 0.08,0.08 h 6 c 0.044,0 0.08,-0.036 0.08,-0.08 v -2.92 c 0,-0.08 -0.08,0 0,0 h 5.84 c 0.08,0 0,-0.08 0,0 v 2.92 c 0,0.044 0.036,0.08 0.08,0.08 h 6 c 0.044,0 0.08,-0.036 0.08,-0.08 v -2.92 c 0,-0.08 -0.08,0 0,0 h 5.84 c 0.08,0 0,-0.08 0,0 v 2.92 c 0,0.044 0.036,0.08 0.08,0.08 h 6 c 0.044,0 0.08,-0.036 0.08,-0.08 v -2.92 c 0,-0.08 -0.08,0 0,0 h 5.84 c 0.08,0 0,-0.08 0,0 v 2.92 c 0,0.044 0.036,0.08 0.08,0.08 h 6 c 0.044,0 0.08,-0.036 0.08,-0.08 v -2.92 c 0,-0.08 -0.08,0 0,0 h 5.84 c 0.08,0 0,-0.08 0,0 v 2.92 c 0,0.044 0.036,0.08 0.08,0.08 h 6 c 0.044,0 0.08,-0.036 0.08,-0.08 v -2.92 c 0,-0.08 -0.08,0 0,0 h 5.84 c 0.08,0 0,-0.08 0,0 v 2.92 c 0,0.044 0.036,0.08 0.08,0.08 h 6 c 0.044,0 0.08,-0.036 0.08,-0.08 v -2.92 c 0,-0.08 -0.08,0 0,0 h 5.84 c 0.08,0 0,-0.08 0,0 v 2.92 c 0,0.044 0.036,0.08 0.08,0.08 h 6 c 0.044,0 0.08,-0.036 0.08,-0.08 v -2.92 c 0,-0.08 -0.08,0 0,0 h 5.84 c 0.08,0 0,-0.08 0,0 v 2.92 c 0,0.044 0.036,0.08 0.08,0.08 h 6 c 0.044,0 0.08,-0.036 0.08,-0.08 v -2.92 c 0,-0.08 -0.08,0 0,0 h 5.84 c 0.08,0 0,-0.08 0,0 v 2.92 c 0,0.044 0.036,0.08 0.08,0.08 h 6 c 0.044,0 0.08,-0.036 0.08,-0.08 v -2.92 c 0,-0.08 -0.08,0 0,0 h 5.84 c 0.08,0 0,-0.08 0,0 v 2.92 c 0,0.044 0.036,0.08 0.08,0.08 h 6 c 0.044,0 0.08,-0.036 0.08,-0.08 v -2.92 c 0,-0.08 -0.08,0 0,0 h 5.84 c 0.08,0 0,-0.08 0,0 v 2.92 c 0,0.044 0.036,0.08 0.08,0.08 h 6 c 0.044,0 0.08,-0.036 0.08,-0.08 v -2.92 c 0,-0.08 -0.08,0 0,0 h 5.92 3 c 0.044,0 0.08,-0.036 0.08,-0.08 v -8 c 0,-0.044 -0.036,-0.08 -0.08,-0.08 h -2.92 c -0.08,0 0,0.08 0,0 v -5.84 c 0,-0.08 -0.08,0 0,0 h 2.92 c 0.044,0 0.08,-0.036 0.08,-0.08 v -6 c 0,-0.044 -0.036,-0.08 -0.08,-0.08 h -2.92 c -0.08,0 0,0.08 0,0 v -5.84 c 0,-0.08 -0.08,0 0,0 h 2.92 c 0.044,0 0.08,-0.036 0.08,-0.08 v -6 c 0,-0.044 -0.036,-0.08 -0.08,-0.08 h -2.92 c -0.08,0 0,0.08 0,0 v -5.84 c 0,-0.08 -0.08,0 0,0 h 2.92 c 0.044,0 0.08,-0.036 0.08,-0.08 v -6 c 0,-0.044 -0.036,-0.08 -0.08,-0.08 h -2.92 c -0.08,0 0,0.08 0,0 v -5.84 c 0,-0.08 -0.08,0 0,0 h 2.92 c 0.044,0 0.08,-0.036 0.08,-0.08 v -6 c 0,-0.044 -0.036,-0.08 -0.08,-0.08 h -2.92 c -0.08,0 0,0.08 0,0 v -5.84 c 0,-0.08 -0.08,0 0,0 h 2.92 c 0.044,0 0.08,-0.036 0.08,-0.08 v -6 c 0,-0.044 -0.036,-0.08 -0.08,-0.08 h -2.92 c -0.08,0 0,0.08 0,0 v -5.84 c 0,-0.08 -0.08,0 0,0 h 2.92 c 0.044,0 0.08,-0.036 0.08,-0.08 v -6 c 0,-0.044 -0.036,-0.08 -0.08,-0.08 h -2.92 c -0.08,0 0,0.08 0,0 v -5.84 c 0,-0.08 -0.08,0 0,0 h 2.92 c 0.044,0 0.08,-0.036 0.08,-0.08 v -8 -3 c 0,-0.044 -0.036,-0.08 -0.08,-0.08 h -3 -6 c -0.044,0 -0.08,0.036 -0.08,0.08 v 2.92 c 0,0.08 0.08,0 0,0 h -5.84 c -0.08,0 0,0.08 0,0 v -2.92 c 0,-0.044 -0.036,-0.08 -0.08,-0.08 h -6 c -0.044,0 -0.08,0.036 -0.08,0.08 v 2.92 c 0,0.08 0.08,0 0,0 h -5.84 c -0.08,0 0,0.08 0,0 v -2.92 c 0,-0.044 -0.036,-0.08 -0.08,-0.08 h -6 c -0.044,0 -0.08,0.036 -0.08,0.08 v 2.92 c 0,0.08 0.08,0 0,0 h -5.84 c -0.08,0 0,0.08 0,0 v -2.92 c 0,-0.044 -0.036,-0.08 -0.08,-0.08 h -6 c -0.044,0 -0.08,0.036 -0.08,0.08 v 2.92 c 0,0.08 0.08,0 0,0 h -5.84 c -0.08,0 0,0.08 0,0 v -2.92 c 0,-0.044 -0.036,-0.08 -0.08,-0.08 h -6 c -0.044,0 -0.08,0.036 -0.08,0.08 v 2.92 c 0,0.08 0.08,0 0,0 h -5.84 c -0.08,0 0,0.08 0,0 v -2.92 c 0,-0.044 -0.036,-0.08 -0.08,-0.08 h -6 c -0.044,0 -0.08,0.036 -0.08,0.08 v 2.92 c 0,0.08 0.08,0 0,0 h -5.84 c -0.08,0 0,0.08 0,0 v -2.92 c 0,-0.044 -0.036,-0.08 -0.08,-0.08 h -6 c -0.044,0 -0.08,0.036 -0.08,0.08 v 2.92 c 0,0.08 0.08,0 0,0 h -5.84 c -0.08,0 0,0.08 0,0 v -2.92 c 0,-0.044 -0.036,-0.08 -0.08,-0.08 h -6 c -0.044,0 -0.08,0.036 -0.08,0.08 v 2.92 c 0,0.08 0.08,0 0,0 h -5.84 c -0.08,0 0,0.08 0,0 v -2.92 c 0,-0.044 -0.036,-0.08 -0.08,-0.08 h -6 c -0.044,0 -0.08,0.036 -0.08,0.08 v 2.92 c 0,0.08 0.08,0 0,0 h -5.84 c -0.08,0 0,0.08 0,0 v -2.92 c 0,-0.044 -0.036,-0.08 -0.08,-0.08 h -6 c -0.044,0 -0.08,0.036 -0.08,0.08 v 2.92 c 0,0.08 0.08,0 0,0 h -5.84 c -0.08,0 0,0.08 0,0 v -2.92 c 0,-0.044 -0.036,-0.08 -0.08,-0.08 h -6 c -0.044,0 -0.08,0.036 -0.08,0.08 v 2.92 c 0,0.08 0.08,0 0,0 h -5.84 c -0.08,0 0,0.08 0,0 v -2.92 c 0,-0.044 -0.036,-0.08 -0.08,-0.08 h -6 c -0.044,0 -0.08,0.036 -0.08,0.08 v 2.92 c 0,0.08 0.08,0 0,0 h -5.84 c -0.08,0 0,0.08 0,0 v -2.92 c 0,-0.044 -0.036,-0.08 -0.08,-0.08 h -6 c -0.044,0 -0.08,0.036 -0.08,0.08 v 2.92 c 0,0.08 0.08,0 0,0 h -5.84 c -0.08,0 0,0.08 0,0 v -2.92 c 0,-0.044 -0.036,-0.08 -0.08,-0.08 h -6 c -0.044,0 -0.08,0.036 -0.08,0.08 v 2.92 c 0,0.08 0.08,0 0,0 h -5.84 c -0.08,0 0,0.08 0,0 v -2.92 c 0,-0.044 -0.036,-0.08 -0.08,-0.08 h -6 -3 c -0.044,0 -0.08,0.036 -0.08,0.08 v 3 8 c 0,0.044 0.036,0.08 0.08,0.08 h 2.92 c 0.08,0 0,-0.08 0,0 v 5.84 c 0,0.08 0.08,0 0,0 h -2.92 c -0.044,0 -0.08,0.036 -0.08,0.08 v 6 c 0,0.044 0.036,0.08 0.08,0.08 h 2.92 c 0.08,0 0,-0.08 0,0 v 5.84 c 0,0.08 0.08,0 0,0 h -2.92 c -0.044,0 -0.08,0.036 -0.08,0.08 v 6 c 0,0.044 0.036,0.08 0.08,0.08 h 2.92 c 0.08,0 0,-0.08 0,0 v 5.84 c 0,0.08 0.08,0 0,0 h -2.92 c -0.044,0 -0.08,0.036 -0.08,0.08 v 6 c 0,0.044 0.036,0.08 0.08,0.08 h 2.92 c 0.08,0 0,-0.08 0,0 v 5.84 c 0,0.08 0.08,0 0,0 h -2.92 c -0.044,0 -0.08,0.036 -0.08,0.08 v 6 c 0,0.044 0.036,0.08 0.08,0.08 h 2.92 c 0.08,0 0,-0.08 0,0 v 5.84 c 0,0.08 0.08,0 0,0 h -2.92 c -0.044,0 -0.08,0.036 -0.08,0.08 v 6 c 0,0.044 0.036,0.08 0.08,0.08 h 2.92 c 0.08,0 0,-0.08 0,0 v 5.84 c 0,0.08 0.08,0 0,0 h -2.92 c -0.044,0 -0.08,0.036 -0.08,0.08 v 6 c 0,0.044 0.036,0.08 0.08,0.08 h 2.92 c 0.08,0 0,-0.08 0,0 v 5.84 c 0,0.08 0.08,0 0,0 h -2.92 c -0.044,0 -0.08,0.036 -0.08,0.08 v 8 c 0,0.044 0.036,0.08 0.08,0.08 z"
     stroke="#000000"
     stroke-width="0.16"
     id="path1-1"
     style="fill:none;stroke-width:0.01;stroke-linecap:round;stroke-linejoin:round;stroke-dasharray:none;stroke:#000000;stroke-opacity:1" />
  <path
     d="m 300.63245,353.62875 h 9.92 c 0.08,0 0,-0.08 0,0 v 2.92 c 0,0.044 0.036,0.08 0.08,0.08 h 6 c 0.044,0 0.08,-0.036 0.08,-0.08 v -2.92 c 0,-0.08 -0.08,0 0,0 h 5.84 c 0.08,0 0,-0.08 0,0 v 2.92 c 0,0.044 0.036,0.08 0.08,0.08 h 6 c 0.044,0 0.08,-0.036 0.08,-0.08 v -2.92 c 0,-0.08 -0.08,0 0,0 h 5.84 c 0.08,0 0,-0.08 0,0 v 2.92 c 0,0.044 0.036,0.08 0.08,0.08 h 6 c 0.044,0 0.08,-0.036 0.08,-0.08 v -2.92 c 0,-0.08 -0.08,0 0,0 h 5.84 c 0.08,0 0,-0.08 0,0 v 2.92 c 0,0.044 0.036,0.08 0.08,0.08 h 6 c 0.044,0 0.08,-0.036 0.08,-0.08 v -2.92 c 0,-0.08 -0.08,0 0,0 h 5.84 c 0.08,0 0,-0.08 0,0 v 2.92 c 0,0.044 0.036,0.08 0.08,0.08 h 6 c 0.044,0 0.08,-0.036 0.08,-0.08 v -2.92 c 0,-0.08 -0.08,0 0,0 h 5.84 c 0.08,0 0,-0.08 0,0 v 2.92 c 0,0.044 0.036,0.08 0.08,0.08 h 6 c 0.044,0 0.08,-0.036 0.08,-0.08 v -2.92 c 0,-0.08 -0.08,0 0,0 h 5.84 c 0.08,0 0,-0.08 0,0 v 2.92 c 0,0.044 0.036,0.08 0.08,0.08 h 6 c 0.044,0 0.08,-0.036 0.08,-0.08 v -2.92 c 0,-0.08 -0.08,0 0,0 h 5.84 c 0.08,0 0,-0.08 0,0 v 2.92 c 0,0.044 0.036,0.08 0.08,0.08 h 6 c 0.044,0 0.08,-0.036 0.08,-0.08 v -2.92 c 0,-0.08 -0.08,0 0,0 h 5.84 c 0.08,0 0,-0.08 0,0 v 2.92 c 0,0.044 0.036,0.08 0.08,0.08 h 6 c 0.044,0 0.08,-0.036 0.08,-0.08 v -2.92 c 0,-0.08 -0.08,0 0,0 h 5.84 c 0.08,0 0,-0.08 0,0 v 2.92 c 0,0.044 0.036,0.08 0.08,0.08 h 6 c 0.044,0 0.08,-0.036 0.08,-0.08 v -2.92 c 0,-0.08 -0.08,0 0,0 h 9.92 c 0.044,0 0.08,-0.036 0.08,-0.08 v -7.92 c 0,-0.08 -0.08,0 0,0 h 2.92 c 0.044,0 0.08,-0.036 0.08,-0.08 v -6 c 0,-0.044 -0.036,-0.08 -0.08,-0.08 h -2.92 c -0.08,0 0,0.08 0,0 v -5.84 c 0,-0.08 -0.08,0 0,0 h 2.92 c 0.044,0 0.08,-0.036 0.08,-0.08 v -6 c 0,-0.044 -0.036,-0.08 -0.08,-0.08 h -2.92 c -0.08,0 0,0.08 0,0 v -5.84 c 0,-0.08 -0.08,0 0,0 h 2.92 c 0.044,0 0.08,-0.036 0.08,-0.08 v -6 c 0,-0.044 -0.036,-0.08 -0.08,-0.08 h -2.92 c -0.08,0 0,0.08 0,0 v -5.84 c 0,-0.08 -0.08,0 0,0 h 2.92 c 0.044,0 0.08,-0.036 0.08,-0.08 v -6 c 0,-0.044 -0.036,-0.08 -0.08,-0.08 h -2.92 c -0.08,0 0,0.08 0,0 v -5.84 c 0,-0.08 -0.08,0 0,0 h 2.92 c 0.044,0 0.08,-0.036 0.08,-0.08 v -6 c 0,-0.044 -0.036,-0.08 -0.08,-0.08 h -2.92 c -0.08,0 0,0.08 0,0 v -5.84 c 0,-0.08 -0.08,0 0,0 h 2.92 c 0.044,0 0.08,-0.036 0.08,-0.08 v -6 c 0,-0.044 -0.036,-0.08 -0.08,-0.08 h -2.92 c -0.08,0 0,0.08 0,0 v -5.84 c 0,-0.08 -0.08,0 0,0 h 2.92 c 0.044,0 0.08,-0.036 0.08,-0.08 v -6 c 0,-0.044 -0.036,-0.08 -0.08,-0.08 h -2.92 c -0.08,0 0,0.08 0,0 v -7.92 -3 c 0,-0.044 -0.036,-0.08 -0.08,-0.08 h -10 c -0.044,0 -0.08,0.036 -0.08,0.08 v 2.92 c 0,0.08 0.08,0 0,0 h -5.84 c -0.08,0 0,0.08 0,0 v -2.92 c 0,-0.044 -0.036,-0.08 -0.08,-0.08 h -6 c -0.044,0 -0.08,0.036 -0.08,0.08 v 2.92 c 0,0.08 0.08,0 0,0 h -5.84 c -0.08,0 0,0.08 0,0 v -2.92 c 0,-0.044 -0.036,-0.08 -0.08,-0.08 h -6 c -0.044,0 -0.08,0.036 -0.08,0.08 v 2.92 c 0,0.08 0.08,0 0,0 h -5.84 c -0.08,0 0,0.08 0,0 v -2.92 c 0,-0.044 -0.036,-0.08 -0.08,-0.08 h -6 c -0.044,0 -0.08,0.036 -0.08,0.08 v 2.92 c 0,0.08 0.08,0 0,0 h -5.84 c -0.08,0 0,0.08 0,0 v -2.92 c 0,-0.044 -0.036,-0.08 -0.08,-0.08 h -6 c -0.044,0 -0.08,0.036 -0.08,0.08 v 2.92 c 0,0.08 0.08,0 0,0 h -5.84 c -0.08,0 0,0.08 0,0 v -2.92 c 0,-0.044 -0.036,-0.08 -0.08,-0.08 h -6 c -0.044,0 -0.08,0.036 -0.08,0.08 v 2.92 c 0,0.08 0.08,0 0,0 h -5.84 c -0.08,0 0,0.08 0,0 v -2.92 c 0,-0.044 -0.036,-0.08 -0.08,-0.08 h -6 c -0.044,0 -0.08,0.036 -0.08,0.08 v 2.92 c 0,0.08 0.08,0 0,0 h -5.84 c -0.08,0 0,0.08 0,0 v -2.92 c 0,-0.044 -0.036,-0.08 -0.08,-0.08 h -6 c -0.044,0 -0.08,0.036 -0.08,0.08 v 2.92 c 0,0.08 0.08,0 0,0 h -5.84 c -0.08,0 0,0.08 0,0 v -2.92 c 0,-0.044 -0.036,-0.08 -0.08,-0.08 h -6 c -0.044,0 -0.08,0.036 -0.08,0.08 v 2.92 c 0,0.08 0.08,0 0,0 h -5.84 c -0.08,0 0,0.08 0,0 v -2.92 c 0,-0.044 -0.036,-0.08 -0.08,-0.08 h -6 c -0.044,0 -0.08,0.036 -0.08,0.08 v 2.92 c 0,0.08 0.08,0 0,0 h -5.84 c -0.08,0 0,0.08 0,0 v -2.92 c 0,-0.044 -0.036,-0.08 -0.08,-0.08 h -10 c -0.044,0 -0.08,0.036 -0.08,0.08 v 3 7.92 c 0,0.08 0.08,0 0,0 h -2.92 c -0.044,0 -0.08,0.036 -0.08,0.08 v 6 c 0,0.044 0.036,0.08 0.08,0.08 h 2.92 c 0.08,0 0,-0.08 0,0 v 5.84 c 0,0.08 0.08,0 0,0 h -2.92 c -0.044,0 -0.08,0.036 -0.08,0.08 v 6 c 0,0.044 0.036,0.08 0.08,0.08 h 2.92 c 0.08,0 0,-0.08 0,0 v 5.84 c 0,0.08 0.08,0 0,0 h -2.92 c -0.044,0 -0.08,0.036 -0.08,0.08 v 6 c 0,0.044 0.036,0.08 0.08,0.08 h 2.92 c 0.08,0 0,-0.08 0,0 v 5.84 c 0,0.08 0.08,0 0,0 h -2.92 c -0.044,0 -0.08,0.036 -0.08,0.08 v 6 c 0,0.044 0.036,0.08 0.08,0.08 h 2.92 c 0.08,0 0,-0.08 0,0 v 5.84 c 0,0.08 0.08,0 0,0 h -2.92 c -0.044,0 -0.08,0.036 -0.08,0.08 v 6 c 0,0.044 0.036,0.08 0.08,0.08 h 2.92 c 0.08,0 0,-0.08 0,0 v 5.84 c 0,0.08 0.08,0 0,0 h -2.92 c -0.044,0 -0.08,0.036 -0.08,0.08 v 6 c 0,0.044 0.036,0.08 0.08,0.08 h 2.92 c 0.08,0 0,-0.08 0,0 v 5.84 c 0,0.08 0.08,0 0,0 h -2.92 c -0.044,0 -0.08,0.036 -0.08,0.08 v 6 c 0,0.044 0.036,0.08 0.08,0.08 h 2.92 c 0.08,0 0,-0.08 0,0 v 7.92 c 0,0.044 0.036,0.08 0.08,0.08 z"
     stroke="#000000"
     stroke-width="0.16"
     id="path2-5"
     style="fill:none;stroke-width:0.01;stroke-linecap:round;stroke-linejoin:round;stroke-dasharray:none;stroke:#000000;stroke-opacity:1" />
  <path
     d="m 300.63245,251.96875 h 9.92 c 0.08,0 0,-0.08 0,0 v 2.92 c 0,0.044 0.036,0.08 0.08,0.08 h 6 c 0.044,0 0.08,-0.036 0.08,-0.08 v -2.92 c 0,-0.08 -0.08,0 0,0 h 5.84 c 0.08,0 0,-0.08 0,0 v 2.92 c 0,0.044 0.036,0.08 0.08,0.08 h 6 c 0.044,0 0.08,-0.036 0.08,-0.08 v -2.92 c 0,-0.08 -0.08,0 0,0 h 5.84 c 0.08,0 0,-0.08 0,0 v 2.92 c 0,0.044 0.036,0.08 0.08,0.08 h 6 c 0.044,0 0.08,-0.036 0.08,-0.08 v -2.92 c 0,-0.08 -0.08,0 0,0 h 5.84 c 0.08,0 0,-0.08 0,0 v 2.92 c 0,0.044 0.036,0.08 0.08,0.08 h 6 c 0.044,0 0.08,-0.036 0.08,-0.08 v -2.92 c 0,-0.08 -0.08,0 0,0 h 5.84 c 0.08,0 0,-0.08 0,0 v 2.92 c 0,0.044 0.036,0.08 0.08,0.08 h 6 c 0.044,0 0.08,-0.036 0.08,-0.08 v -2.92 c 0,-0.08 -0.08,0 0,0 h 5.84 c 0.08,0 0,-0.08 0,0 v 2.92 c 0,0.044 0.036,0.08 0.08,0.08 h 6 c 0.044,0 0.08,-0.036 0.08,-0.08 v -2.92 c 0,-0.08 -0.08,0 0,0 h 5.84 c 0.08,0 0,-0.08 0,0 v 2.92 c 0,0.044 0.036,0.08 0.08,0.08 h 6 c 0.044,0 0.08,-0.036 0.08,-0.08 v -2.92 c 0,-0.08 -0.08,0 0,0 h 5.84 c 0.08,0 0,-0.08 0,0 v 2.92 c 0,0.044 0.036,0.08 0.08,0.08 h 6 c 0.044,0 0.08,-0.036 0.08,-0.08 v -2.92 c 0,-0.08 -0.08,0 0,0 h 5.84 c 0.08,0 0,-0.08 0,0 v 2.92 c 0,0.044 0.036,0.08 0.08,0.08 h 6 c 0.044,0 0.08,-0.036 0.08,-0.08 v -2.92 c 0,-0.08 -0.08,0 0,0 h 5.84 c 0.08,0 0,-0.08 0,0 v 2.92 c 0,0.044 0.036,0.08 0.08,0.08 h 6 c 0.044,0 0.08,-0.036 0.08,-0.08 v -2.92 c 0,-0.08 -0.08,0 0,0 h 9.92 c 0.044,0 0.08,-0.036 0.08,-0.08 v -7.92 c 0,-0.08 -0.08,0 0,0 h 2.92 c 0.044,0 0.08,-0.036 0.08,-0.08 v -6 c 0,-0.044 -0.036,-0.08 -0.08,-0.08 h -2.92 c -0.08,0 0,0.08 0,0 v -5.84 c 0,-0.08 -0.08,0 0,0 h 2.92 c 0.044,0 0.08,-0.036 0.08,-0.08 v -6 c 0,-0.044 -0.036,-0.08 -0.08,-0.08 h -2.92 c -0.08,0 0,0.08 0,0 v -5.84 c 0,-0.08 -0.08,0 0,0 h 2.92 c 0.044,0 0.08,-0.036 0.08,-0.08 v -6 c 0,-0.044 -0.036,-0.08 -0.08,-0.08 h -2.92 c -0.08,0 0,0.08 0,0 v -5.84 c 0,-0.08 -0.08,0 0,0 h 2.92 c 0.044,0 0.08,-0.036 0.08,-0.08 v -6 c 0,-0.044 -0.036,-0.08 -0.08,-0.08 h -2.92 c -0.08,0 0,0.08 0,0 v -5.84 c 0,-0.08 -0.08,0 0,0 h 2.92 c 0.044,0 0.08,-0.036 0.08,-0.08 v -6 c 0,-0.044 -0.036,-0.08 -0.08,-0.08 h -2.92 c -0.08,0 0,0.08 0,0 v -5.84 c 0,-0.08 -0.08,0 0,0 h 2.92 c 0.044,0 0.08,-0.036 0.08,-0.08 v -6 c 0,-0.044 -0.036,-0.08 -0.08,-0.08 h -2.92 c -0.08,0 0,0.08 0,0 v -5.84 c 0,-0.08 -0.08,0 0,0 h 2.92 c 0.044,0 0.08,-0.036 0.08,-0.08 v -6 c 0,-0.044 -0.036,-0.08 -0.08,-0.08 h -2.92 c -0.08,0 0,0.08 0,0 v -7.92 -3 c 0,-0.044 -0.036,-0.08 -0.08,-0.08 h -10 c -0.044,0 -0.08,0.036 -0.08,0.08 v 2.92 c 0,0.08 0.08,0 0,0 h -5.84 c -0.08,0 0,0.08 0,0 v -2.92 c 0,-0.044 -0.036,-0.08 -0.08,-0.08 h -6 c -0.044,0 -0.08,0.036 -0.08,0.08 v 2.92 c 0,0.08 0.08,0 0,0 h -5.84 c -0.08,0 0,0.08 0,0 v -2.92 c 0,-0.044 -0.036,-0.08 -0.08,-0.08 h -6 c -0.044,0 -0.08,0.036 -0.08,0.08 v 2.92 c 0,0.08 0.08,0 0,0 h -5.84 c -0.08,0 0,0.08 0,0 v -2.92 c 0,-0.044 -0.036,-0.08 -0.08,-0.08 h -6 c -0.044,0 -0.08,0.036 -0.08,0.08 v 2.92 c 0,0.08 0.08,0 0,0 h -5.84 c -0.08,0 0,0.08 0,0 v -2.92 c 0,-0.044 -0.036,-0.08 -0.08,-0.08 h -6 c -0.044,0 -0.08,0.036 -0.08,0.08 v 2.92 c 0,0.08 0.08,0 0,0 h -5.84 c -0.08,0 0,0.08 0,0 v -2.92 c 0,-0.044 -0.036,-0.08 -0.08,-0.08 h -6 c -0.044,0 -0.08,0.036 -0.08,0.08 v 2.92 c 0,0.08 0.08,0 0,0 h -5.84 c -0.08,0 0,0.08 0,0 v -2.92 c 0,-0.044 -0.036,-0.08 -0.08,-0.08 h -6 c -0.044,0 -0.08,0.036 -0.08,0.08 v 2.92 c 0,0.08 0.08,0 0,0 h -5.84 c -0.08,0 0,0.08 0,0 v -2.92 c 0,-0.044 -0.036,-0.08 -0.08,-0.08 h -6 c -0.044,0 -0.08,0.036 -0.08,0.08 v 2.92 c 0,0.08 0.08,0 0,0 h -5.84 c -0.08,0 0,0.08 0,0 v -2.92 c 0,-0.044 -0.036,-0.08 -0.08,-0.08 h -6 c -0.044,0 -0.08,0.036 -0.08,0.08 v 2.92 c 0,0.08 0.08,0 0,0 h -5.84 c -0.08,0 0,0.08 0,0 v -2.92 c 0,-0.044 -0.036,-0.08 -0.08,-0.08 h -6 c -0.044,0 -0.08,0.036 -0.08,0.08 v 2.92 c 0,0.08 0.08,0 0,0 h -5.84 c -0.08,0 0,0.08 0,0 v -2.92 c 0,-0.044 -0.036,-0.08 -0.08,-0.08 h -10 c -0.044,0 -0.08,0.036 -0.08,0.08 v 3 7.92 c 0,0.08 0.08,0 0,0 h -2.92 c -0.044,0 -0.08,0.036 -0.08,0.08 v 6 c 0,0.044 0.036,0.08 0.08,0.08 h 2.92 c 0.08,0 0,-0.08 0,0 v 5.84 c 0,0.08 0.08,0 0,0 h -2.92 c -0.044,0 -0.08,0.036 -0.08,0.08 v 6 c 0,0.044 0.036,0.08 0.08,0.08 h 2.92 c 0.08,0 0,-0.08 0,0 v 5.84 c 0,0.08 0.08,0 0,0 h -2.92 c -0.044,0 -0.08,0.036 -0.08,0.08 v 6 c 0,0.044 0.036,0.08 0.08,0.08 h 2.92 c 0.08,0 0,-0.08 0,0 v 5.84 c 0,0.08 0.08,0 0,0 h -2.92 c -0.044,0 -0.08,0.036 -0.08,0.08 v 6 c 0,0.044 0.036,0.08 0.08,0.08 h 2.92 c 0.08,0 0,-0.08 0,0 v 5.84 c 0,0.08 0.08,0 0,0 h -2.92 c -0.044,0 -0.08,0.036 -0.08,0.08 v 6 c 0,0.044 0.036,0.08 0.08,0.08 h 2.92 c 0.08,0 0,-0.08 0,0 v 5.84 c 0,0.08 0.08,0 0,0 h -2.92 c -0.044,0 -0.08,0.036 -0.08,0.08 v 6 c 0,0.044 0.036,0.08 0.08,0.08 h 2.92 c 0.08,0 0,-0.08 0,0 v 5.84 c 0,0.08 0.08,0 0,0 h -2.92 c -0.044,0 -0.08,0.036 -0.08,0.08 v 6 c 0,0.044 0.036,0.08 0.08,0.08 h 2.92 c 0.08,0 0,-0.08 0,0 v 7.92 c 0,0.044 0.036,0.08 0.08,0.08 z"
     stroke="#000000"
     stroke-width="0.16"
     id="path3-7"
     style="fill:none;stroke-width:0.01;stroke-linecap:round;stroke-linejoin:round;stroke-dasharray:none;stroke:#000000;stroke-opacity:1" />
  <path
     d="m 118.97245,251.96875 h 5.92 c 0.08,0 0,-0.08 0,0 v 2.92 c 0,0.044 0.036,0.08 0.08,0.08 h 6 c 0.044,0 0.08,-0.036 0.08,-0.08 v -2.92 c 0,-0.08 -0.08,0 0,0 h 5.84 c 0.08,0 0,-0.08 0,0 v 2.92 c 0,0.044 0.036,0.08 0.08,0.08 h 6 c 0.044,0 0.08,-0.036 0.08,-0.08 v -2.92 c 0,-0.08 -0.08,0 0,0 h 5.84 c 0.08,0 0,-0.08 0,0 v 2.92 c 0,0.044 0.036,0.08 0.08,0.08 h 6 c 0.044,0 0.08,-0.036 0.08,-0.08 v -2.92 c 0,-0.08 -0.08,0 0,0 h 5.84 c 0.08,0 0,-0.08 0,0 v 2.92 c 0,0.044 0.036,0.08 0.08,0.08 h 6 c 0.044,0 0.08,-0.036 0.08,-0.08 v -2.92 c 0,-0.08 -0.08,0 0,0 h 5.84 c 0.08,0 0,-0.08 0,0 v 2.92 c 0,0.044 0.036,0.08 0.08,0.08 h 6 c 0.044,0 0.08,-0.036 0.08,-0.08 v -2.92 c 0,-0.08 -0.08,0 0,0 h 5.84 c 0.08,0 0,-0.08 0,0 v 2.92 c 0,0.044 0.036,0.08 0.08,0.08 h 6 c 0.044,0 0.08,-0.036 0.08,-0.08 v -2.92 c 0,-0.08 -0.08,0 0,0 h 5.84 c 0.08,0 0,-0.08 0,0 v 2.92 c 0,0.044 0.036,0.08 0.08,0.08 h 6 c 0.044,0 0.08,-0.036 0.08,-0.08 v -2.92 c 0,-0.08 -0.08,0 0,0 h 5.84 c 0.08,0 0,-0.08 0,0 v 2.92 c 0,0.044 0.036,0.08 0.08,0.08 h 6 c 0.044,0 0.08,-0.036 0.08,-0.08 v -2.92 c 0,-0.08 -0.08,0 0,0 h 5.84 c 0.08,0 0,-0.08 0,0 v 2.92 c 0,0.044 0.036,0.08 0.08,0.08 h 6 c 0.044,0 0.08,-0.036 0.08,-0.08 v -2.92 c 0,-0.08 -0.08,0 0,0 h 5.84 c 0.08,0 0,-0.08 0,0 v 2.92 c 0,0.044 0.036,0.08 0.08,0.08 h 6 c 0.044,0 0.08,-0.036 0.08,-0.08 v -2.92 c 0,-0.08 -0.08,0 0,0 h 5.84 c 0.08,0 0,-0.08 0,0 v 2.92 c 0,0.044 0.036,0.08 0.08,0.08 h 6 c 0.044,0 0.08,-0.036 0.08,-0.08 v -2.92 c 0,-0.08 -0.08,0 0,0 h 5.84 c 0.08,0 0,-0.08 0,0 v 2.92 c 0,0.044 0.036,0.08 0.08,0.08 h 6 c 0.044,0 0.08,-0.036 0.08,-0.08 v -2.92 c 0,-0.08 -0.08,0 0,0 h 5.84 c 0.08,0 0,-0.08 0,0 v 2.92 c 0,0.044 0.036,0.08 0.08,0.08 h 6 c 0.044,0 0.08,-0.036 0.08,-0.08 v -2.92 c 0,-0.08 -0.08,0 0,0 h 5.84 c 0.08,0 0,-0.08 0,0 v 2.92 c 0,0.044 0.036,0.08 0.08,0.08 h 6 c 0.044,0 0.08,-0.036 0.08,-0.08 v -2.92 c 0,-0.08 -0.08,0 0,0 h 5.92 3 c 0.044,0 0.08,-0.036 0.08,-0.08 v -8 c 0,-0.044 -0.036,-0.08 -0.08,-0.08 h -2.92 c -0.08,0 0,0.08 0,0 v -5.84 c 0,-0.08 -0.08,0 0,0 h 2.92 c 0.044,0 0.08,-0.036 0.08,-0.08 v -6 c 0,-0.044 -0.036,-0.08 -0.08,-0.08 h -2.92 c -0.08,0 0,0.08 0,0 v -5.84 c 0,-0.08 -0.08,0 0,0 h 2.92 c 0.044,0 0.08,-0.036 0.08,-0.08 v -6 c 0,-0.044 -0.036,-0.08 -0.08,-0.08 h -2.92 c -0.08,0 0,0.08 0,0 v -5.84 c 0,-0.08 -0.08,0 0,0 h 2.92 c 0.044,0 0.08,-0.036 0.08,-0.08 v -6 c 0,-0.044 -0.036,-0.08 -0.08,-0.08 h -2.92 c -0.08,0 0,0.08 0,0 v -5.84 c 0,-0.08 -0.08,0 0,0 h 2.92 c 0.044,0 0.08,-0.036 0.08,-0.08 v -6 c 0,-0.044 -0.036,-0.08 -0.08,-0.08 h -2.92 c -0.08,0 0,0.08 0,0 v -5.84 c 0,-0.08 -0.08,0 0,0 h 2.92 c 0.044,0 0.08,-0.036 0.08,-0.08 v -6 c 0,-0.044 -0.036,-0.08 -0.08,-0.08 h -2.92 c -0.08,0 0,0.08 0,0 v -5.84 c 0,-0.08 -0.08,0 0,0 h 2.92 c 0.044,0 0.08,-0.036 0.08,-0.08 v -6 c 0,-0.044 -0.036,-0.08 -0.08,-0.08 h -2.92 c -0.08,0 0,0.08 0,0 v -5.84 c 0,-0.08 -0.08,0 0,0 h 2.92 c 0.044,0 0.08,-0.036 0.08,-0.08 v -8 -3 c 0,-0.044 -0.036,-0.08 -0.08,-0.08 h -3 -6 c -0.044,0 -0.08,0.036 -0.08,0.08 v 2.92 c 0,0.08 0.08,0 0,0 h -5.84 c -0.08,0 0,0.08 0,0 v -2.92 c 0,-0.044 -0.036,-0.08 -0.08,-0.08 h -6 c -0.044,0 -0.08,0.036 -0.08,0.08 v 2.92 c 0,0.08 0.08,0 0,0 h -5.84 c -0.08,0 0,0.08 0,0 v -2.92 c 0,-0.044 -0.036,-0.08 -0.08,-0.08 h -6 c -0.044,0 -0.08,0.036 -0.08,0.08 v 2.92 c 0,0.08 0.08,0 0,0 h -5.84 c -0.08,0 0,0.08 0,0 v -2.92 c 0,-0.044 -0.036,-0.08 -0.08,-0.08 h -6 c -0.044,0 -0.08,0.036 -0.08,0.08 v 2.92 c 0,0.08 0.08,0 0,0 h -5.84 c -0.08,0 0,0.08 0,0 v -2.92 c 0,-0.044 -0.036,-0.08 -0.08,-0.08 h -6 c -0.044,0 -0.08,0.036 -0.08,0.08 v 2.92 c 0,0.08 0.08,0 0,0 h -5.84 c -0.08,0 0,0.08 0,0 v -2.92 c 0,-0.044 -0.036,-0.08 -0.08,-0.08 h -6 c -0.044,0 -0.08,0.036 -0.08,0.08 v 2.92 c 0,0.08 0.08,0 0,0 h -5.84 c -0.08,0 0,0.08 0,0 v -2.92 c 0,-0.044 -0.036,-0.08 -0.08,-0.08 h -6 c -0.044,0 -0.08,0.036 -0.08,0.08 v 2.92 c 0,0.08 0.08,0 0,0 h -5.84 c -0.08,0 0,0.08 0,0 v -2.92 c 0,-0.044 -0.036,-0.08 -0.08,-0.08 h -6 c -0.044,0 -0.08,0.036 -0.08,0.08 v 2.92 c 0,0.08 0.08,0 0,0 h -5.84 c -0.08,0 0,0.08 0,0 v -2.92 c 0,-0.044 -0.036,-0.08 -0.08,-0.08 h -6 c -0.044,0 -0.08,0.036 -0.08,0.08 v 2.92 c 0,0.08 0.08,0 0,0 h -5.84 c -0.08,0 0,0.08 0,0 v -2.92 c 0,-0.044 -0.036,-0.08 -0.08,-0.08 h -6 c -0.044,0 -0.08,0.036 -0.08,0.08 v 2.92 c 0,0.08 0.08,0 0,0 h -5.84 c -0.08,0 0,0.08 0,0 v -2.92 c 0,-0.044 -0.036,-0.08 -0.08,-0.08 h -6 c -0.044,0 -0.08,0.036 -0.08,0.08 v 2.92 c 0,0.08 0.08,0 0,0 h -5.84 c -0.08,0 0,0.08 0,0 v -2.92 c 0,-0.044 -0.036,-0.08 -0.08,-0.08 h -6 c -0.044,0 -0.08,0.036 -0.08,0.08 v 2.92 c 0,0.08 0.08,0 0,0 h -5.84 c -0.08,0 0,0.08 0,0 v -2.92 c 0,-0.044 -0.036,-0.08 -0.08,-0.08 h -6 c -0.044,0 -0.08,0.036 -0.08,0.08 v 2.92 c 0,0.08 0.08,0 0,0 h -5.84 c -0.08,0 0,0.08 0,0 v -2.92 c 0,-0.044 -0.036,-0.08 -0.08,-0.08 h -6 c -0.044,0 -0.08,0.036 -0.08,0.08 v 2.92 c 0,0.08 0.08,0 0,0 h -5.84 c -0.08,0 0,0.08 0,0 v -2.92 c 0,-0.044 -0.036,-0.08 -0.08,-0.08 h -6 -3 c -0.044,0 -0.08,0.036 -0.08,0.08 v 3 8 c 0,0.044 0.036,0.08 0.08,0.08 h 2.92 c 0.08,0 0,-0.08 0,0 v 5.84 c 0,0.08 0.08,0 0,0 h -2.92 c -0.044,0 -0.08,0.036 -0.08,0.08 v 6 c 0,0.044 0.036,0.08 0.08,0.08 h 2.92 c 0.08,0 0,-0.08 0,0 v 5.84 c 0,0.08 0.08,0 0,0 h -2.92 c -0.044,0 -0.08,0.036 -0.08,0.08 v 6 c 0,0.044 0.036,0.08 0.08,0.08 h 2.92 c 0.08,0 0,-0.08 0,0 v 5.84 c 0,0.08 0.08,0 0,0 h -2.92 c -0.044,0 -0.08,0.036 -0.08,0.08 v 6 c 0,0.044 0.036,0.08 0.08,0.08 h 2.92 c 0.08,0 0,-0.08 0,0 v 5.84 c 0,0.08 0.08,0 0,0 h -2.92 c -0.044,0 -0.08,0.036 -0.08,0.08 v 6 c 0,0.044 0.036,0.08 0.08,0.08 h 2.92 c 0.08,0 0,-0.08 0,0 v 5.84 c 0,0.08 0.08,0 0,0 h -2.92 c -0.044,0 -0.08,0.036 -0.08,0.08 v 6 c 0,0.044 0.036,0.08 0.08,0.08 h 2.92 c 0.08,0 0,-0.08 0,0 v 5.84 c 0,0.08 0.08,0 0,0 h -2.92 c -0.044,0 -0.08,0.036 -0.08,0.08 v 6 c 0,0.044 0.036,0.08 0.08,0.08 h 2.92 c 0.08,0 0,-0.08 0,0 v 5.84 c 0,0.08 0.08,0 0,0 h -2.92 c -0.044,0 -0.08,0.036 -0.08,0.08 v 8 c 0,0.044 0.036,0.08 0.08,0.08 z"
     stroke="#000000"
     stroke-width="0.16"
     id="path4-1"
     style="fill:none;stroke-width:0.01;stroke-linecap:round;stroke-linejoin:round;stroke-dasharray:none;stroke:#000000;stroke-opacity:1" />
  <path
     style="fill:none;stroke:#000000;stroke-width:0.02;stroke-linecap:round;stroke-linejoin:round;stroke-dasharray:none;stroke-opacity:1"
     d="m 132.28443,82.130904 h 5.00021 v 4.999695 h -5.00021 z"
     id="path57" />
  <path
     style="fill:none;stroke:#000000;stroke-width:0.02;stroke-linecap:round;stroke-linejoin:round;stroke-dasharray:none;stroke-opacity:1"
     d="m 251.57534,81.866838 h 7.00009 v 7.4998 h -7.00009 z"
     id="path56" />
  <path
     style="fill:none;stroke:#000000;stroke-width:0.02;stroke-linecap:round;stroke-linejoin:round;stroke-dasharray:none;stroke-opacity:1"
     d="m 150.8926,60.30898 h 21.99969 v 51.99993 H 150.8926 Z"
     id="path55" />
  <path
     style="fill:none;stroke:#000000;stroke-width:0.02;stroke-linecap:round;stroke-linejoin:round;stroke-dasharray:none;stroke-opacity:1"
     d="m 124.97222,13.148551 c -0.044,0 -0.0796,0.0361 -0.0796,0.0801 v 2.920235 h -5.92006 c -0.044,0 -0.0801,0.0361 -0.0801,0.0801 v 9.919808 h -2.92023 c -0.044,0 -0.0796,0.0361 -0.0796,0.0801 v 5.999634 c 0,0.044 0.0356,0.0801 0.0796,0.0801 h 2.92023 v 5.839954 h -2.92023 c -0.044,0 -0.0796,0.0361 -0.0796,0.0801 v 6.000151 c 0,0.044 0.0356,0.0801 0.0796,0.0801 h 2.92023 v 5.839954 h -2.92023 c -0.044,0 -0.0796,0.0361 -0.0796,0.0801 v 5.999634 c 0,0.044 0.0356,0.0801 0.0796,0.0801 h 2.92023 v 5.839953 h -2.92023 c -0.044,0 -0.0796,0.0361 -0.0796,0.0801 v 6.00015 c 0,0.044 0.0356,0.07958 0.0796,0.07958 h 2.92023 v 5.84047 h -2.92023 c -0.044,0 -0.0796,0.03558 -0.0796,0.07958 v 6.000151 c 0,0.044 0.0356,0.0801 0.0796,0.0801 h 2.92023 v 5.839954 h -2.92023 c -0.044,0 -0.0796,0.0361 -0.0796,0.0801 v 6.000151 c 0,0.044 0.0356,0.07958 0.0796,0.07958 h 2.92023 v 5.839954 h -2.92023 c -0.044,0 -0.0796,0.0361 -0.0796,0.0801 v 6.000146 c 0,0.044 0.0356,0.0801 0.0796,0.0801 h 2.92023 v 5.83995 h -2.92023 c -0.044,0 -0.0796,0.0361 -0.0796,0.0801 v 5.99963 c 0,0.044 0.0356,0.0801 0.0796,0.0801 h 2.92023 v 5.83996 h -2.92023 c -0.044,0 -0.0796,0.0361 -0.0796,0.0801 v 6.00015 c 0,0.044 0.0356,0.0801 0.0796,0.0801 h 2.92023 v 5.83996 h -2.92023 c -0.044,0 -0.0796,0.0356 -0.0796,0.0796 v 6.00015 c 0,0.044 0.0356,0.0801 0.0796,0.0801 h 2.92023 v 9.91981 c 0,0.044 0.0361,0.0801 0.0801,0.0801 h 5.92006 v 2.92024 c 0,0.044 0.0356,0.0801 0.0796,0.0801 h 6.00015 c 0.044,0 0.0801,-0.0361 0.0801,-0.0801 v -2.92024 h 5.83995 v 2.92024 c 0,0.044 0.0361,0.0801 0.0801,0.0801 h 6.00015 c 0.044,0 0.0796,-0.0361 0.0796,-0.0801 v -2.92024 h 5.83995 v 2.92024 c 0,0.044 0.0361,0.0801 0.0801,0.0801 h 6.00015 c 0.044,0 0.0801,-0.0361 0.0801,-0.0801 v -2.92024 h 5.83995 v 2.92024 c 0,0.044 0.0361,0.0801 0.0801,0.0801 h 5.99964 c 0.044,0 0.0801,-0.0361 0.0801,-0.0801 v -2.92024 h 5.83995 v 2.92024 c 0,0.044 0.0361,0.0801 0.0801,0.0801 h 6.00015 c 0.044,0 0.0801,-0.0361 0.0801,-0.0801 v -2.92024 h 5.83995 v 2.92024 c 0,0.044 0.0361,0.0801 0.0801,0.0801 h 5.99963 c 0.044,0 0.0801,-0.0361 0.0801,-0.0801 v -2.92024 h 5.83995 v 2.92024 c 0,0.044 0.0361,0.0801 0.0801,0.0801 h 6.00015 c 0.044,0 0.0796,-0.0361 0.0796,-0.0801 v -2.92024 h 5.84047 v 2.92024 c 0,0.044 0.0356,0.0801 0.0796,0.0801 h 6.00015 c 0.044,0 0.0801,-0.0361 0.0801,-0.0801 v -2.92024 h 5.83995 v 2.92024 c 0,0.044 0.0361,0.0801 0.0801,0.0801 h 5.99963 c 0.044,0 0.0801,-0.0361 0.0801,-0.0801 v -2.92024 h 5.83995 v 2.92024 c 0,0.044 0.0361,0.0801 0.0801,0.0801 h 6.00015 c 0.044,0 0.0801,-0.0361 0.0801,-0.0801 v -2.92024 h 5.83996 v 2.92024 c 0,0.044 0.0361,0.0801 0.0801,0.0801 h 5.99964 c 0.044,0 0.0801,-0.0361 0.0801,-0.0801 v -2.92024 h 5.83995 v 2.92024 c 0,0.044 0.0361,0.0801 0.0801,0.0801 h 6.00015 c 0.044,0 0.0801,-0.0361 0.0801,-0.0801 v -2.92024 h 5.83995 v 2.92024 c 0,0.044 0.0356,0.0801 0.0796,0.0801 h 6.00015 c 0.044,0 0.0801,-0.0361 0.0801,-0.0801 v -2.92024 h 5.83996 v 2.92024 c 0,0.044 0.0361,0.0801 0.0801,0.0801 h 6.00015 c 0.044,0 0.0796,-0.0361 0.0796,-0.0801 v -2.92024 h 5.92005 c 0.044,0 0.0801,-0.0361 0.0801,-0.0801 v -9.91981 h 2.92023 c 0.044,0 0.0796,-0.0361 0.0796,-0.0801 v -6.00015 c 0,-0.044 -0.0356,-0.0796 -0.0796,-0.0796 h -2.92023 v -5.83996 h 2.92023 c 0.044,0 0.0796,-0.0361 0.0796,-0.0801 v -6.00015 c 0,-0.044 -0.0356,-0.0801 -0.0796,-0.0801 h -2.92023 v -5.83996 h 2.92023 c 0.044,0 0.0796,-0.0361 0.0796,-0.0801 v -5.99963 c 0,-0.044 -0.0356,-0.0801 -0.0796,-0.0801 h -2.92023 v -5.83995 h 2.92023 c 0.044,0 0.0796,-0.0361 0.0796,-0.0801 v -6.000146 c 0,-0.044 -0.0356,-0.0801 -0.0796,-0.0801 H 293.0525 V 92.30859 h 2.92023 c 0.044,0 0.0796,-0.03558 0.0796,-0.07958 v -6.000151 c 0,-0.044 -0.0356,-0.0801 -0.0796,-0.0801 h -2.92023 v -5.839954 h 2.92023 c 0.044,0 0.0796,-0.0361 0.0796,-0.0801 v -6.000151 c 0,-0.044 -0.0356,-0.07958 -0.0796,-0.07958 h -2.92023 v -5.84047 h 2.92023 c 0.044,0 0.0796,-0.03558 0.0796,-0.07958 v -6.00015 c 0,-0.044 -0.0356,-0.0801 -0.0796,-0.0801 h -2.92023 v -5.839953 h 2.92023 c 0.044,0 0.0796,-0.0361 0.0796,-0.0801 v -5.999634 c 0,-0.044 -0.0356,-0.0801 -0.0796,-0.0801 h -2.92023 v -5.839954 h 2.92023 c 0.044,0 0.0796,-0.0361 0.0796,-0.0801 v -6.000151 c 0,-0.044 -0.0356,-0.0801 -0.0796,-0.0801 h -2.92023 v -5.839954 h 2.92023 c 0.044,0 0.0796,-0.0361 0.0796,-0.0801 V 26.22889 c 0,-0.044 -0.0356,-0.0801 -0.0796,-0.0801 h -2.92023 v -9.919808 c 0,-0.044 -0.0361,-0.0801 -0.0801,-0.0801 h -5.92005 V 13.22865 c 0,-0.044 -0.0356,-0.0801 -0.0796,-0.0801 h -6.00015 c -0.044,0 -0.0801,0.0361 -0.0801,0.0801 v 2.920235 h -5.83996 V 13.22865 c 0,-0.044 -0.0361,-0.0801 -0.0801,-0.0801 h -6.00015 c -0.044,0 -0.0796,0.0361 -0.0796,0.0801 v 2.920235 h -5.83995 V 13.22865 c 0,-0.044 -0.0361,-0.0801 -0.0801,-0.0801 h -6.00015 c -0.044,0 -0.0801,0.0361 -0.0801,0.0801 v 2.920235 h -5.83995 V 13.22865 c 0,-0.044 -0.0361,-0.0801 -0.0801,-0.0801 h -5.99964 c -0.044,0 -0.0801,0.0361 -0.0801,0.0801 v 2.920235 h -5.83996 V 13.22865 c 0,-0.044 -0.0361,-0.0801 -0.0801,-0.0801 h -6.00015 c -0.044,0 -0.0801,0.0361 -0.0801,0.0801 v 2.920235 h -5.83995 V 13.22865 c 0,-0.044 -0.0361,-0.0801 -0.0801,-0.0801 h -5.99963 c -0.044,0 -0.0801,0.0361 -0.0801,0.0801 v 2.920235 h -5.83995 V 13.22865 c 0,-0.044 -0.0361,-0.0801 -0.0801,-0.0801 h -6.00015 c -0.044,0 -0.0796,0.0361 -0.0796,0.0801 v 2.920235 h -5.84047 V 13.22865 c 0,-0.044 -0.0356,-0.0801 -0.0796,-0.0801 h -6.00015 c -0.044,0 -0.0801,0.0361 -0.0801,0.0801 v 2.920235 h -5.83995 V 13.22865 c 0,-0.044 -0.0361,-0.0801 -0.0801,-0.0801 h -5.99963 c -0.044,0 -0.0801,0.0361 -0.0801,0.0801 v 2.920235 h -5.83995 V 13.22865 c 0,-0.044 -0.0361,-0.0801 -0.0801,-0.0801 h -6.00015 c -0.044,0 -0.0801,0.0361 -0.0801,0.0801 v 2.920235 h -5.83995 V 13.22865 c 0,-0.044 -0.0361,-0.0801 -0.0801,-0.0801 h -5.99964 c -0.044,0 -0.0801,0.0361 -0.0801,0.0801 v 2.920235 h -5.83995 V 13.22865 c 0,-0.044 -0.0361,-0.0801 -0.0801,-0.0801 h -6.00015 c -0.044,0 -0.0801,0.0361 -0.0801,0.0801 v 2.920235 h -5.83995 V 13.22865 c 0,-0.044 -0.0356,-0.0801 -0.0796,-0.0801 h -6.00015 c -0.044,0 -0.0801,0.0361 -0.0801,0.0801 v 2.920235 h -5.83995 V 13.22865 c 0,-0.044 -0.0361,-0.0801 -0.0801,-0.0801 z"
     id="path5-4" />
  <path
     d="m 312.63245,150.14875 h -2.92 c -0.08,0 0,0.08 0,0 v -2.84 c 0,-0.08 -0.08,0 0,0 h 5.84 c 0.08,0 0,-0.08 0,0 v 2.84 c 0,0.08 0.08,0 0,0 z"
     stroke="#0000ff"
     stroke-width="0.16"
     id="path6-2"
     style="fill:none;stroke:#000000;stroke-width:0.01;stroke-linecap:round;stroke-linejoin:round;stroke-dasharray:none;stroke-opacity:1" />
  <path
     d="m 324.63245,150.14875 h -2.92 c -0.08,0 0,0.08 0,0 v -2.84 c 0,-0.08 -0.08,0 0,0 h 5.84 c 0.08,0 0,-0.08 0,0 v 2.84 c 0,0.08 0.08,0 0,0 z"
     stroke="#0000ff"
     stroke-width="0.16"
     id="path7"
     style="fill:none;stroke:#000000;stroke-width:0.01;stroke-linecap:round;stroke-linejoin:round;stroke-dasharray:none;stroke-opacity:1" />
  <path
     d="m 336.63245,150.14875 h -2.92 c -0.08,0 0,0.08 0,0 v -2.84 c 0,-0.08 -0.08,0 0,0 h 5.84 c 0.08,0 0,-0.08 0,0 v 2.84 c 0,0.08 0.08,0 0,0 z"
     stroke="#0000ff"
     stroke-width="0.16"
     id="path8"
     style="fill:none;stroke:#000000;stroke-width:0.01;stroke-linecap:round;stroke-linejoin:round;stroke-dasharray:none;stroke-opacity:1" />
  <path
     d="m 348.63245,150.14875 h -2.92 c -0.08,0 0,0.08 0,0 v -2.84 c 0,-0.08 -0.08,0 0,0 h 5.84 c 0.08,0 0,-0.08 0,0 v 2.84 c 0,0.08 0.08,0 0,0 z"
     stroke="#0000ff"
     stroke-width="0.16"
     id="path9"
     style="fill:none;stroke:#000000;stroke-width:0.01;stroke-linecap:round;stroke-linejoin:round;stroke-dasharray:none;stroke-opacity:1" />
  <path
     d="m 360.63245,150.14875 h -2.92 c -0.08,0 0,0.08 0,0 v -2.84 c 0,-0.08 -0.08,0 0,0 h 5.84 c 0.08,0 0,-0.08 0,0 v 2.84 c 0,0.08 0.08,0 0,0 z"
     stroke="#0000ff"
     stroke-width="0.16"
     id="path10"
     style="fill:none;stroke:#000000;stroke-width:0.01;stroke-linecap:round;stroke-linejoin:round;stroke-dasharray:none;stroke-opacity:1" />
  <path
     d="m 372.63245,150.14875 h -2.92 c -0.08,0 0,0.08 0,0 v -2.84 c 0,-0.08 -0.08,0 0,0 h 5.84 c 0.08,0 0,-0.08 0,0 v 2.84 c 0,0.08 0.08,0 0,0 z"
     stroke="#0000ff"
     stroke-width="0.16"
     id="path11"
     style="fill:none;stroke:#000000;stroke-width:0.01;stroke-linecap:round;stroke-linejoin:round;stroke-dasharray:none;stroke-opacity:1" />
  <path
     d="m 384.63245,150.14875 h -2.92 c -0.08,0 0,0.08 0,0 v -2.84 c 0,-0.08 -0.08,0 0,0 h 5.84 c 0.08,0 0,-0.08 0,0 v 2.84 c 0,0.08 0.08,0 0,0 z"
     stroke="#0000ff"
     stroke-width="0.16"
     id="path12"
     style="fill:none;stroke:#000000;stroke-width:0.01;stroke-linecap:round;stroke-linejoin:round;stroke-dasharray:none;stroke-opacity:1" />
  <path
     d="m 396.63245,150.14875 h -2.92 c -0.08,0 0,0.08 0,0 v -2.84 c 0,-0.08 -0.08,0 0,0 h 5.84 c 0.08,0 0,-0.08 0,0 v 2.84 c 0,0.08 0.08,0 0,0 z"
     stroke="#0000ff"
     stroke-width="0.16"
     id="path13"
     style="fill:none;stroke:#000000;stroke-width:0.01;stroke-linecap:round;stroke-linejoin:round;stroke-dasharray:none;stroke-opacity:1" />
  <path
     d="m 408.63245,150.14875 h -2.92 c -0.08,0 0,0.08 0,0 v -2.84 c 0,-0.08 -0.08,0 0,0 h 5.84 c 0.08,0 0,-0.08 0,0 v 2.84 c 0,0.08 0.08,0 0,0 z"
     stroke="#0000ff"
     stroke-width="0.16"
     id="path14"
     style="fill:none;stroke:#000000;stroke-width:0.01;stroke-linecap:round;stroke-linejoin:round;stroke-dasharray:none;stroke-opacity:1" />
  <path
     d="m 420.63245,150.14875 h -2.92 c -0.08,0 0,0.08 0,0 v -2.84 c 0,-0.08 -0.08,0 0,0 h 5.84 c 0.08,0 0,-0.08 0,0 v 2.84 c 0,0.08 0.08,0 0,0 z"
     stroke="#0000ff"
     stroke-width="0.16"
     id="path15"
     style="fill:none;stroke:#000000;stroke-width:0.01;stroke-linecap:round;stroke-linejoin:round;stroke-dasharray:none;stroke-opacity:1" />
  <path
     d="m 432.63245,150.14875 h -2.92 c -0.08,0 0,0.08 0,0 v -2.84 c 0,-0.08 -0.08,0 0,0 h 5.84 c 0.08,0 0,-0.08 0,0 v 2.84 c 0,0.08 0.08,0 0,0 z"
     stroke="#0000ff"
     stroke-width="0.16"
     id="path16"
     style="fill:none;stroke-width:0.02;stroke-linecap:round;stroke-linejoin:round;stroke-dasharray:none;stroke:#000000;stroke-opacity:1" />
  <path
     d="m 444.63245,150.14875 h -2.92 c -0.08,0 0,0.08 0,0 v -2.84 c 0,-0.08 -0.08,0 0,0 h 5.84 c 0.08,0 0,-0.08 0,0 v 2.84 c 0,0.08 0.08,0 0,0 z"
     stroke="#0000ff"
     stroke-width="0.16"
     id="path17"
     style="fill:none;stroke-width:0.02;stroke-linecap:round;stroke-linejoin:round;stroke-dasharray:none;stroke:#000000;stroke-opacity:1" />
  <path
     d="m 456.63245,150.14875 h -2.92 c -0.08,0 0,0.08 0,0 v -2.84 c 0,-0.08 -0.08,0 0,0 h 5.84 c 0.08,0 0,-0.08 0,0 v 2.84 c 0,0.08 0.08,0 0,0 z"
     stroke="#0000ff"
     stroke-width="0.16"
     id="path18"
     style="fill:none;stroke-width:0.02;stroke-linecap:round;stroke-linejoin:round;stroke-dasharray:none;stroke:#000000;stroke-opacity:1" />
  <path
     d="m 468.63245,150.14875 h -2.92 c -0.08,0 0,0.08 0,0 v -2.84 c 0,-0.08 -0.08,0 0,0 h 5.84 c 0.08,0 0,-0.08 0,0 v 2.84 c 0,0.08 0.08,0 0,0 z"
     stroke="#0000ff"
     stroke-width="0.16"
     id="path19"
     style="fill:none;stroke-width:0.02;stroke-linecap:round;stroke-linejoin:round;stroke-dasharray:none;stroke:#000000;stroke-opacity:1" />
  <path
     d="m 303.63245,153.30875 h 174 6 c 0.044,0 0.08,-0.036 0.08,-0.08 v -6 -134 -5.9999996 c 0,-0.044 -0.036,-0.08 -0.08,-0.08 h -6 -174 -6 c -0.044,0 -0.08,0.036 -0.08,0.08 v 5.9999996 134 6 c 0,0.044 0.036,0.08 0.08,0.08 z"
     stroke="#000000"
     stroke-width="0.16"
     id="path20"
     style="fill:none;stroke-width:0.01;stroke-linecap:round;stroke-linejoin:round;stroke-dasharray:none;stroke:#000000;stroke-opacity:1" />
  <path
     d="m 480.55245,134.22875 v 2.92 c 0,0.08 0.08,0 0,0 h -2.84 c -0.08,0 0,0.08 0,0 v -5.84 c 0,-0.08 -0.08,0 0,0 h 2.84 c 0.08,0 0,-0.08 0,0 z"
     stroke="#0000ff"
     stroke-width="0.16"
     id="path21"
     style="fill:none;stroke-width:0.02;stroke-linecap:round;stroke-linejoin:round;stroke-dasharray:none;stroke:#000000;stroke-opacity:1" />
  <path
     d="m 480.55245,122.22875 v 2.92 c 0,0.08 0.08,0 0,0 h -2.84 c -0.08,0 0,0.08 0,0 v -5.84 c 0,-0.08 -0.08,0 0,0 h 2.84 c 0.08,0 0,-0.08 0,0 z"
     stroke="#0000ff"
     stroke-width="0.16"
     id="path22"
     style="fill:none;stroke-width:0.02;stroke-linecap:round;stroke-linejoin:round;stroke-dasharray:none;stroke:#000000;stroke-opacity:1" />
  <path
     d="m 480.55245,110.22875 v 2.92 c 0,0.08 0.08,0 0,0 h -2.84 c -0.08,0 0,0.08 0,0 v -5.84 c 0,-0.08 -0.08,0 0,0 h 2.84 c 0.08,0 0,-0.08 0,0 z"
     stroke="#0000ff"
     stroke-width="0.16"
     id="path23"
     style="fill:none;stroke-width:0.02;stroke-linecap:round;stroke-linejoin:round;stroke-dasharray:none;stroke:#000000;stroke-opacity:1" />
  <path
     d="m 480.55245,98.22875 v 2.92 c 0,0.08 0.08,0 0,0 h -2.84 c -0.08,0 0,0.08 0,0 v -5.84 c 0,-0.08 -0.08,0 0,0 h 2.84 c 0.08,0 0,-0.08 0,0 z"
     stroke="#0000ff"
     stroke-width="0.16"
     id="path24"
     style="fill:none;stroke-width:0.02;stroke-linecap:round;stroke-linejoin:round;stroke-dasharray:none;stroke:#000000;stroke-opacity:1" />
  <path
     d="m 480.55245,86.22875 v 2.92 c 0,0.08 0.08,0 0,0 h -2.84 c -0.08,0 0,0.08 0,0 v -5.84 c 0,-0.08 -0.08,0 0,0 h 2.84 c 0.08,0 0,-0.08 0,0 z"
     stroke="#0000ff"
     stroke-width="0.16"
     id="path25"
     style="fill:none;stroke-width:0.02;stroke-linecap:round;stroke-linejoin:round;stroke-dasharray:none;stroke:#000000;stroke-opacity:1" />
  <path
     d="m 480.55245,74.22875 v 2.92 c 0,0.08 0.08,0 0,0 h -2.84 c -0.08,0 0,0.08 0,0 v -5.84 c 0,-0.08 -0.08,0 0,0 h 2.84 c 0.08,0 0,-0.08 0,0 z"
     stroke="#0000ff"
     stroke-width="0.16"
     id="path26"
     style="fill:none;stroke-width:0.02;stroke-linecap:round;stroke-linejoin:round;stroke-dasharray:none;stroke:#000000;stroke-opacity:1" />
  <path
     d="m 480.55245,62.22875 v 2.92 c 0,0.08 0.08,0 0,0 h -2.84 c -0.08,0 0,0.08 0,0 v -5.84 c 0,-0.08 -0.08,0 0,0 h 2.84 c 0.08,0 0,-0.08 0,0 z"
     stroke="#0000ff"
     stroke-width="0.16"
     id="path27"
     style="fill:none;stroke-width:0.02;stroke-linecap:round;stroke-linejoin:round;stroke-dasharray:none;stroke:#000000;stroke-opacity:1" />
  <path
     d="m 480.55245,50.22875 v 2.92 c 0,0.08 0.08,0 0,0 h -2.84 c -0.08,0 0,0.08 0,0 v -5.84 c 0,-0.08 -0.08,0 0,0 h 2.84 c 0.08,0 0,-0.08 0,0 z"
     stroke="#0000ff"
     stroke-width="0.16"
     id="path28"
     style="fill:none;stroke-width:0.02;stroke-linecap:round;stroke-linejoin:round;stroke-dasharray:none;stroke:#000000;stroke-opacity:1" />
  <path
     d="m 480.55245,38.22875 v 2.92 c 0,0.08 0.08,0 0,0 h -2.84 c -0.08,0 0,0.08 0,0 v -5.84 c 0,-0.08 -0.08,0 0,0 h 2.84 c 0.08,0 0,-0.08 0,0 z"
     stroke="#0000ff"
     stroke-width="0.16"
     id="path29"
     style="fill:none;stroke-width:0.02;stroke-linecap:round;stroke-linejoin:round;stroke-dasharray:none;stroke:#000000;stroke-opacity:1" />
  <path
     d="m 480.55245,26.22875 v 2.92 c 0,0.08 0.08,0 0,0 h -2.84 c -0.08,0 0,0.08 0,0 v -5.84 c 0,-0.08 -0.08,0 0,0 h 2.84 c 0.08,0 0,-0.08 0,0 z"
     stroke="#0000ff"
     stroke-width="0.16"
     id="path30"
     style="fill:none;stroke-width:0.02;stroke-linecap:round;stroke-linejoin:round;stroke-dasharray:none;stroke:#000000;stroke-opacity:1" />
  <path
     d="m 468.63245,10.30875 h 2.92 c 0.08,0 0,-0.08 0,0 v 2.84 c 0,0.08 0.08,0 0,0 h -5.84 c -0.08,0 0,0.08 0,0 v -2.84 c 0,-0.08 -0.08,0 0,0 z"
     stroke="#0000ff"
     stroke-width="0.16"
     id="path31"
     style="fill:none;stroke-width:0.02;stroke-linecap:round;stroke-linejoin:round;stroke-dasharray:none;stroke:#000000;stroke-opacity:1" />
  <path
     d="m 456.63245,10.30875 h 2.92 c 0.08,0 0,-0.08 0,0 v 2.84 c 0,0.08 0.08,0 0,0 h -5.84 c -0.08,0 0,0.08 0,0 v -2.84 c 0,-0.08 -0.08,0 0,0 z"
     stroke="#0000ff"
     stroke-width="0.16"
     id="path32"
     style="fill:none;stroke-width:0.02;stroke-linecap:round;stroke-linejoin:round;stroke-dasharray:none;stroke:#000000;stroke-opacity:1" />
  <path
     d="m 444.63245,10.30875 h 2.92 c 0.08,0 0,-0.08 0,0 v 2.84 c 0,0.08 0.08,0 0,0 h -5.84 c -0.08,0 0,0.08 0,0 v -2.84 c 0,-0.08 -0.08,0 0,0 z"
     stroke="#0000ff"
     stroke-width="0.16"
     id="path33"
     style="fill:none;stroke-width:0.02;stroke-linecap:round;stroke-linejoin:round;stroke-dasharray:none;stroke:#000000;stroke-opacity:1" />
  <path
     d="m 432.63245,10.30875 h 2.92 c 0.08,0 0,-0.08 0,0 v 2.84 c 0,0.08 0.08,0 0,0 h -5.84 c -0.08,0 0,0.08 0,0 v -2.84 c 0,-0.08 -0.08,0 0,0 z"
     stroke="#0000ff"
     stroke-width="0.16"
     id="path34"
     style="fill:none;stroke-width:0.02;stroke-linecap:round;stroke-linejoin:round;stroke-dasharray:none;stroke:#000000;stroke-opacity:1" />
  <path
     d="m 420.63245,10.30875 h 2.92 c 0.08,0 0,-0.08 0,0 v 2.84 c 0,0.08 0.08,0 0,0 h -5.84 c -0.08,0 0,0.08 0,0 v -2.84 c 0,-0.08 -0.08,0 0,0 z"
     stroke="#0000ff"
     stroke-width="0.16"
     id="path35"
     style="fill:none;stroke:#000000;stroke-width:0.01;stroke-linecap:round;stroke-linejoin:round;stroke-dasharray:none;stroke-opacity:1" />
  <path
     d="m 408.63245,10.30875 h 2.92 c 0.08,0 0,-0.08 0,0 v 2.84 c 0,0.08 0.08,0 0,0 h -5.84 c -0.08,0 0,0.08 0,0 v -2.84 c 0,-0.08 -0.08,0 0,0 z"
     stroke="#0000ff"
     stroke-width="0.16"
     id="path36"
     style="fill:none;stroke:#000000;stroke-width:0.01;stroke-linecap:round;stroke-linejoin:round;stroke-dasharray:none;stroke-opacity:1" />
  <path
     d="m 396.63245,10.30875 h 2.92 c 0.08,0 0,-0.08 0,0 v 2.84 c 0,0.08 0.08,0 0,0 h -5.84 c -0.08,0 0,0.08 0,0 v -2.84 c 0,-0.08 -0.08,0 0,0 z"
     stroke="#0000ff"
     stroke-width="0.16"
     id="path37"
     style="fill:none;stroke:#000000;stroke-width:0.01;stroke-linecap:round;stroke-linejoin:round;stroke-dasharray:none;stroke-opacity:1" />
  <path
     d="m 384.63245,10.30875 h 2.92 c 0.08,0 0,-0.08 0,0 v 2.84 c 0,0.08 0.08,0 0,0 h -5.84 c -0.08,0 0,0.08 0,0 v -2.84 c 0,-0.08 -0.08,0 0,0 z"
     stroke="#0000ff"
     stroke-width="0.16"
     id="path38"
     style="fill:none;stroke:#000000;stroke-width:0.01;stroke-linecap:round;stroke-linejoin:round;stroke-dasharray:none;stroke-opacity:1" />
  <path
     d="m 372.63245,10.30875 h 2.92 c 0.08,0 0,-0.08 0,0 v 2.84 c 0,0.08 0.08,0 0,0 h -5.84 c -0.08,0 0,0.08 0,0 v -2.84 c 0,-0.08 -0.08,0 0,0 z"
     stroke="#0000ff"
     stroke-width="0.16"
     id="path39"
     style="fill:none;stroke:#000000;stroke-width:0.01;stroke-linecap:round;stroke-linejoin:round;stroke-dasharray:none;stroke-opacity:1" />
  <path
     d="m 360.63245,10.30875 h 2.92 c 0.08,0 0,-0.08 0,0 v 2.84 c 0,0.08 0.08,0 0,0 h -5.84 c -0.08,0 0,0.08 0,0 v -2.84 c 0,-0.08 -0.08,0 0,0 z"
     stroke="#0000ff"
     stroke-width="0.16"
     id="path40"
     style="fill:none;stroke:#000000;stroke-width:0.01;stroke-linecap:round;stroke-linejoin:round;stroke-dasharray:none;stroke-opacity:1" />
  <path
     d="m 348.63245,10.30875 h 2.92 c 0.08,0 0,-0.08 0,0 v 2.84 c 0,0.08 0.08,0 0,0 h -5.84 c -0.08,0 0,0.08 0,0 v -2.84 c 0,-0.08 -0.08,0 0,0 z"
     stroke="#0000ff"
     stroke-width="0.16"
     id="path41"
     style="fill:none;stroke:#000000;stroke-width:0.01;stroke-linecap:round;stroke-linejoin:round;stroke-dasharray:none;stroke-opacity:1" />
  <path
     d="m 336.63245,10.30875 h 2.92 c 0.08,0 0,-0.08 0,0 v 2.84 c 0,0.08 0.08,0 0,0 h -5.84 c -0.08,0 0,0.08 0,0 v -2.84 c 0,-0.08 -0.08,0 0,0 z"
     stroke="#0000ff"
     stroke-width="0.16"
     id="path42"
     style="fill:none;stroke:#000000;stroke-width:0.01;stroke-linecap:round;stroke-linejoin:round;stroke-dasharray:none;stroke-opacity:1" />
  <path
     d="m 324.63245,10.30875 h 2.92 c 0.08,0 0,-0.08 0,0 v 2.84 c 0,0.08 0.08,0 0,0 h -5.84 c -0.08,0 0,0.08 0,0 v -2.84 c 0,-0.08 -0.08,0 0,0 z"
     stroke="#0000ff"
     stroke-width="0.16"
     id="path43"
     style="fill:none;stroke:#000000;stroke-width:0.01;stroke-linecap:round;stroke-linejoin:round;stroke-dasharray:none;stroke-opacity:1" />
  <path
     d="m 312.63245,10.30875 h 2.92 c 0.08,0 0,-0.08 0,0 v 2.84 c 0,0.08 0.08,0 0,0 h -5.84 c -0.08,0 0,0.08 0,0 v -2.84 c 0,-0.08 -0.08,0 0,0 z"
     stroke="#0000ff"
     stroke-width="0.16"
     id="path44"
     style="fill:none;stroke:#000000;stroke-width:0.01;stroke-linecap:round;stroke-linejoin:round;stroke-dasharray:none;stroke-opacity:1" />
  <path
     d="m 300.71245,26.22875 v -2.92 c 0,-0.08 -0.08,0 0,0 h 2.84 c 0.08,0 0,-0.08 0,0 v 5.84 c 0,0.08 0.08,0 0,0 h -2.84 c -0.08,0 0,0.08 0,0 z"
     stroke="#0000ff"
     stroke-width="0.16"
     id="path45"
     style="fill:none;stroke:#000000;stroke-width:0.01;stroke-linecap:round;stroke-linejoin:round;stroke-dasharray:none;stroke-opacity:1" />
  <path
     d="m 300.71245,38.22875 v -2.92 c 0,-0.08 -0.08,0 0,0 h 2.84 c 0.08,0 0,-0.08 0,0 v 5.84 c 0,0.08 0.08,0 0,0 h -2.84 c -0.08,0 0,0.08 0,0 z"
     stroke="#0000ff"
     stroke-width="0.16"
     id="path46"
     style="fill:none;stroke:#000000;stroke-width:0.01;stroke-linecap:round;stroke-linejoin:round;stroke-dasharray:none;stroke-opacity:1" />
  <path
     d="m 300.71245,50.22875 v -2.92 c 0,-0.08 -0.08,0 0,0 h 2.84 c 0.08,0 0,-0.08 0,0 v 5.84 c 0,0.08 0.08,0 0,0 h -2.84 c -0.08,0 0,0.08 0,0 z"
     stroke="#0000ff"
     stroke-width="0.16"
     id="path47"
     style="fill:none;stroke:#000000;stroke-width:0.01;stroke-linecap:round;stroke-linejoin:round;stroke-dasharray:none;stroke-opacity:1" />
  <path
     d="m 300.71245,62.22875 v -2.92 c 0,-0.08 -0.08,0 0,0 h 2.84 c 0.08,0 0,-0.08 0,0 v 5.84 c 0,0.08 0.08,0 0,0 h -2.84 c -0.08,0 0,0.08 0,0 z"
     stroke="#0000ff"
     stroke-width="0.16"
     id="path48"
     style="fill:none;stroke:#000000;stroke-width:0.01;stroke-linecap:round;stroke-linejoin:round;stroke-dasharray:none;stroke-opacity:1" />
  <path
     d="m 300.71245,74.22875 v -2.92 c 0,-0.08 -0.08,0 0,0 h 2.84 c 0.08,0 0,-0.08 0,0 v 5.84 c 0,0.08 0.08,0 0,0 h -2.84 c -0.08,0 0,0.08 0,0 z"
     stroke="#0000ff"
     stroke-width="0.16"
     id="path49"
     style="fill:none;stroke:#000000;stroke-width:0.01;stroke-linecap:round;stroke-linejoin:round;stroke-dasharray:none;stroke-opacity:1" />
  <path
     d="m 300.71245,86.22875 v -2.92 c 0,-0.08 -0.08,0 0,0 h 2.84 c 0.08,0 0,-0.08 0,0 v 5.84 c 0,0.08 0.08,0 0,0 h -2.84 c -0.08,0 0,0.08 0,0 z"
     stroke="#0000ff"
     stroke-width="0.16"
     id="path50"
     style="fill:none;stroke:#000000;stroke-width:0.01;stroke-linecap:round;stroke-linejoin:round;stroke-dasharray:none;stroke-opacity:1" />
  <path
     d="m 300.71245,98.22875 v -2.92 c 0,-0.08 -0.08,0 0,0 h 2.84 c 0.08,0 0,-0.08 0,0 v 5.84 c 0,0.08 0.08,0 0,0 h -2.84 c -0.08,0 0,0.08 0,0 z"
     stroke="#0000ff"
     stroke-width="0.16"
     id="path51"
     style="fill:none;stroke:#000000;stroke-width:0.01;stroke-linecap:round;stroke-linejoin:round;stroke-dasharray:none;stroke-opacity:1" />
  <path
     d="m 300.71245,110.22875 v -2.92 c 0,-0.08 -0.08,0 0,0 h 2.84 c 0.08,0 0,-0.08 0,0 v 5.84 c 0,0.08 0.08,0 0,0 h -2.84 c -0.08,0 0,0.08 0,0 z"
     stroke="#0000ff"
     stroke-width="0.16"
     id="path52"
     style="fill:none;stroke:#000000;stroke-width:0.01;stroke-linecap:round;stroke-linejoin:round;stroke-dasharray:none;stroke-opacity:1" />
  <path
     d="m 300.71245,122.22875 v -2.92 c 0,-0.08 -0.08,0 0,0 h 2.84 c 0.08,0 0,-0.08 0,0 v 5.84 c 0,0.08 0.08,0 0,0 h -2.84 c -0.08,0 0,0.08 0,0 z"
     stroke="#0000ff"
     stroke-width="0.16"
     id="path53"
     style="fill:none;stroke:#000000;stroke-width:0.01;stroke-linecap:round;stroke-linejoin:round;stroke-dasharray:none;stroke-opacity:1" />
  <path
     d="m 300.71245,134.22875 v -2.92 c 0,-0.08 -0.08,0 0,0 h 2.84 c 0.08,0 0,-0.08 0,0 v 5.84 c 0,0.08 0.08,0 0,0 h -2.84 c -0.08,0 0,0.08 0,0 z"
     stroke="#0000ff"
     stroke-width="0.16"
     id="path54"
     style="fill:none;stroke:#000000;stroke-width:0.01;stroke-linecap:round;stroke-linejoin:round;stroke-dasharray:none;stroke-opacity:1" />
</svg>
